<svg width="999" height="307" viewBox="0 0 999 307" fill="none" xmlns="http://www.w3.org/2000/svg">
<g clip-path="url(#clip0_11_11)">
<path fill-rule="evenodd" clip-rule="evenodd" d="M162.22 307C244.355 307 310.939 240.416 310.939 158.28L280.067 155.034C249.194 151.789 187.45 145.297 125.705 122.575C106.409 115.475 87.114 106.789 67.8186 98.1038C56.4969 93.0076 45.1753 87.9114 33.8535 83.1353C20.9169 105.187 13.5 130.867 13.5 158.28C13.5 240.416 80.0841 307 162.22 307Z" fill="#EDA12D"/>
<path d="M310.939 158.28C310.939 76.1449 244.355 9.56077 162.22 9.56077C107.497 9.56077 59.6778 39.1163 33.8535 83.1353C45.1753 87.9114 56.4969 93.0076 67.8186 98.1038C87.114 106.789 106.409 115.475 125.705 122.575C187.45 145.297 249.194 151.789 280.067 155.034L310.939 158.28Z" fill="#BD2DED"/>
<ellipse cx="124.697" cy="217.076" rx="22.197" ry="35.5151" fill="#131313"/>
<ellipse cx="192.028" cy="217.076" rx="22.197" ry="35.5151" fill="#131313"/>
<path d="M954.863 162.281C944.08 162.281 934.692 160.061 926.7 155.621C918.834 151.053 912.745 144.901 908.432 137.162C904.245 129.423 902.152 120.67 902.152 110.902C902.152 99.484 904.435 89.779 909.002 81.7867C913.696 73.6675 919.786 67.4513 927.271 63.1379C934.755 58.8246 942.684 56.668 951.057 56.668C957.527 56.668 963.617 58 969.325 60.6641C975.161 63.3282 980.299 67.0072 984.739 71.7011C989.179 76.2682 992.668 81.5964 995.205 87.6858C997.869 93.7752 999.201 100.245 999.201 107.096C999.075 110.14 997.869 112.614 995.586 114.517C993.302 116.42 990.638 117.372 987.594 117.372H914.902L909.193 98.3422H979.03L974.844 102.148V97.0102C974.59 93.3312 973.258 90.0327 970.848 87.1149C968.564 84.1971 965.646 81.9136 962.094 80.2643C958.669 78.4883 954.99 77.6002 951.057 77.6002C947.251 77.6002 943.699 78.1077 940.401 79.1226C937.102 80.1375 934.248 81.8501 931.838 84.2605C929.427 86.6709 927.524 89.9059 926.129 93.9655C924.733 98.0251 924.036 103.163 924.036 109.379C924.036 116.23 925.431 122.065 928.222 126.886C931.14 131.58 934.819 135.196 939.259 137.733C943.826 140.143 948.647 141.349 953.721 141.349C958.415 141.349 962.158 140.968 964.949 140.207C967.74 139.446 969.96 138.558 971.609 137.543C973.385 136.401 974.971 135.449 976.366 134.688C978.65 133.546 980.806 132.976 982.836 132.976C985.627 132.976 987.911 133.927 989.687 135.83C991.59 137.733 992.541 139.953 992.541 142.49C992.541 145.916 990.765 149.024 987.213 151.815C983.915 154.606 979.284 157.079 973.322 159.236C967.359 161.266 961.206 162.281 954.863 162.281Z" fill="#EDA12D"/>
<path d="M809.208 144.583C807.94 142.807 807.369 140.524 807.496 137.733C807.622 134.942 809.272 132.532 812.443 130.502C814.473 129.233 816.63 128.726 818.913 128.979C821.197 129.106 823.417 130.248 825.573 132.405C829.252 136.084 833.122 138.938 837.181 140.968C841.241 142.998 846.315 144.013 852.405 144.013C854.308 143.886 856.401 143.632 858.684 143.251C860.968 142.744 862.934 141.729 864.584 140.207C866.36 138.558 867.248 136.084 867.248 132.785C867.248 129.994 866.296 127.774 864.393 126.125C862.49 124.476 859.953 123.08 856.782 121.939C853.737 120.797 850.312 119.719 846.506 118.704C842.573 117.562 838.513 116.293 834.327 114.898C830.267 113.502 826.525 111.726 823.1 109.57C819.674 107.286 816.883 104.305 814.727 100.626C812.57 96.9467 811.492 92.3163 811.492 86.7343C811.492 80.3912 813.268 74.9996 816.82 70.5594C820.372 66.1192 824.939 62.6939 830.521 60.2835C836.23 57.8732 842.192 56.668 848.409 56.668C852.341 56.668 856.464 57.1754 860.778 58.1903C865.091 59.0784 869.214 60.6007 873.147 62.7574C877.079 64.7872 880.378 67.5147 883.042 70.94C884.437 72.8429 885.262 75.1264 885.516 77.7905C885.77 80.4546 884.564 82.865 881.9 85.0217C879.997 86.544 877.777 87.2418 875.24 87.1149C872.703 86.8612 870.61 85.9731 868.96 84.4508C866.804 81.6598 863.886 79.4397 860.207 77.7905C856.655 76.1413 852.532 75.3167 847.838 75.3167C845.935 75.3167 843.842 75.5704 841.558 76.0779C839.401 76.4585 837.498 77.4099 835.849 78.9323C834.2 80.3278 833.375 82.6113 833.375 85.7829C833.375 88.7007 834.327 91.0476 836.23 92.8237C838.133 94.4729 840.67 95.8684 843.842 97.0102C847.14 98.0251 850.629 99.0399 854.308 100.055C858.114 101.07 861.983 102.275 865.916 103.67C869.848 105.066 873.464 106.905 876.762 109.189C880.061 111.472 882.725 114.454 884.755 118.133C886.784 121.685 887.799 126.252 887.799 131.834C887.799 138.304 885.896 143.822 882.091 148.389C878.285 152.956 873.527 156.445 867.819 158.855C862.11 161.139 856.274 162.281 850.312 162.281C842.827 162.281 835.342 161.012 827.857 158.475C820.372 155.811 814.156 151.18 809.208 144.583Z" fill="#EDA12D"/>
<path d="M750.818 162.281C740.035 162.281 730.647 160.061 722.655 155.621C714.789 151.053 708.7 144.901 704.386 137.162C700.2 129.423 698.107 120.67 698.107 110.902C698.107 99.484 700.39 89.779 704.957 81.7867C709.651 73.6675 715.741 67.4513 723.225 63.1379C730.71 58.8246 738.639 56.668 747.012 56.668C753.482 56.668 759.571 58 765.28 60.6641C771.116 63.3282 776.254 67.0072 780.694 71.7011C785.134 76.2682 788.623 81.5964 791.16 87.6858C793.824 93.7752 795.156 100.245 795.156 107.096C795.029 110.14 793.824 112.614 791.541 114.517C789.257 116.42 786.593 117.372 783.548 117.372H710.856L705.148 98.3422H774.985L770.799 102.148V97.0102C770.545 93.3312 769.213 90.0327 766.803 87.1149C764.519 84.1971 761.601 81.9136 758.049 80.2643C754.624 78.4883 750.945 77.6002 747.012 77.6002C743.206 77.6002 739.654 78.1077 736.356 79.1226C733.057 80.1375 730.203 81.8501 727.792 84.2605C725.382 86.6709 723.479 89.9059 722.084 93.9655C720.688 98.0251 719.99 103.163 719.99 109.379C719.99 116.23 721.386 122.065 724.177 126.886C727.095 131.58 730.774 135.196 735.214 137.733C739.781 140.143 744.602 141.349 749.676 141.349C754.37 141.349 758.113 140.968 760.903 140.207C763.694 139.446 765.915 138.558 767.564 137.543C769.34 136.401 770.926 135.449 772.321 134.688C774.605 133.546 776.761 132.976 778.791 132.976C781.582 132.976 783.866 133.927 785.642 135.83C787.545 137.733 788.496 139.953 788.496 142.49C788.496 145.916 786.72 149.024 783.168 151.815C779.869 154.606 775.239 157.079 769.276 159.236C763.314 161.266 757.161 162.281 750.818 162.281Z" fill="#EDA12D"/>
<path d="M615.491 152.594C605.878 147.709 598.515 141.476 593.401 133.897C588.458 126.262 585.817 118.018 585.478 109.165C585.252 100.37 587.351 91.6178 591.777 82.9094C596.95 72.7307 603.382 65.1134 611.074 60.0574C618.937 54.9458 627.182 52.1629 635.809 51.7086C644.436 51.2543 652.481 52.9238 659.946 56.7171C665.714 59.6483 670.539 63.5946 674.421 68.5559C678.417 73.5748 681.33 79.1823 683.162 85.3784C685.051 91.4615 685.748 97.7921 685.251 104.37C684.867 111.006 683.123 117.377 680.02 123.484C678.527 126.141 676.332 127.801 673.434 128.462C670.536 129.124 667.73 128.766 665.016 127.386L600.212 94.4535L603.744 74.9027L666.003 106.542L660.547 108.039L662.874 103.458C664.315 100.063 664.622 96.5194 663.795 92.8262C663.081 89.1904 661.514 85.8328 659.095 82.7533C656.846 79.6181 653.968 77.1597 650.462 75.378C647.07 73.6538 643.673 72.4969 640.273 71.9073C636.872 71.3177 633.552 71.5514 630.311 72.6082C627.07 73.665 623.908 75.6868 620.825 78.6737C617.742 81.6606 614.792 85.9248 611.976 91.4665C608.872 97.5737 607.472 103.408 607.776 108.97C608.251 114.477 609.893 119.367 612.702 123.64C615.681 127.858 619.433 131.117 623.957 133.416C628.141 135.542 631.65 136.899 634.483 137.484C637.316 138.07 639.697 138.284 641.627 138.127C643.728 137.914 645.573 137.784 647.162 137.737C649.715 137.754 651.896 138.222 653.706 139.142C656.194 140.406 657.798 142.289 658.52 144.79C659.354 147.349 659.196 149.759 658.047 152.021C656.495 155.074 653.504 157.041 649.072 157.919C644.868 158.913 639.619 159.021 633.326 158.242C627.091 157.35 621.146 155.468 615.491 152.594Z" fill="#EDA12D"/>
<path d="M540.972 48.668C550.107 48.668 557.021 50.6344 561.714 54.5671C566.535 58.4998 569.834 63.7646 571.61 70.3614C573.386 76.8314 574.274 84.0626 574.274 92.0549V140.77C574.274 144.068 573.195 146.859 571.039 149.143C568.882 151.3 566.155 152.378 562.856 152.378C559.558 152.378 556.83 151.3 554.674 149.143C552.517 146.859 551.439 144.068 551.439 140.77V92.0549C551.439 87.8684 550.931 84.126 549.916 80.8276C548.901 77.4023 547.062 74.6747 544.398 72.645C541.734 70.6152 537.928 69.6003 532.98 69.6003C528.159 69.6003 524.036 70.6152 520.611 72.645C517.186 74.6747 514.585 77.4023 512.809 80.8276C511.16 84.126 510.335 87.8684 510.335 92.0549V140.77C510.335 144.068 509.257 146.859 507.1 149.143C504.944 151.3 502.216 152.378 498.918 152.378C495.619 152.378 492.892 151.3 490.735 149.143C488.578 146.859 487.5 144.068 487.5 140.77V23.1687C487.5 19.8703 488.578 17.1427 490.735 14.9861C492.892 12.7025 495.619 11.5608 498.918 11.5608C502.216 11.5608 504.944 12.7025 507.1 14.9861C509.257 17.1427 510.335 19.8703 510.335 23.1687V70.3614L507.481 69.7906C508.623 67.6339 510.208 65.3504 512.238 62.94C514.268 60.4027 516.742 58.0558 519.66 55.8991C522.577 53.7425 525.812 52.0298 529.365 50.7612C532.917 49.3657 536.786 48.668 540.972 48.668Z" fill="#EDA12D"/>
<path d="M408.556 61.924C415.499 59.9045 421.742 58.8816 427.283 58.8553C432.946 58.7936 437.568 59.6953 441.15 61.5603C444.817 63.2681 447.182 65.9492 448.245 69.6036C448.954 72.0399 448.896 74.567 448.072 77.1848C447.213 79.6808 445.382 81.3363 442.58 82.1511C440.631 82.718 438.916 82.9527 437.434 82.8552C436.039 82.6004 434.73 82.1884 433.507 81.6191C432.285 81.0498 430.897 80.5946 429.345 80.2535C427.914 79.8769 425.867 79.8779 423.202 80.2565C420.624 80.4778 418.726 80.7656 417.508 81.1199C411.295 82.9269 406.386 85.808 402.78 89.7634C399.296 93.6834 397.07 98.2944 396.102 103.597C395.099 108.777 395.465 114.351 397.201 120.32C398.901 126.167 401.582 131.069 405.243 135.025C408.99 138.823 413.324 141.46 418.246 142.935C423.289 144.375 428.551 144.298 434.032 142.704C437.078 141.818 439.644 140.873 441.73 139.87C443.816 138.867 445.484 137.788 446.733 136.631C448.155 135.161 449.377 133.683 450.398 132.197C451.419 130.711 453.27 129.578 455.949 128.798C459.117 127.877 461.854 128.204 464.162 129.779C466.434 131.232 467.995 133.42 468.846 136.344C469.731 139.389 468.841 142.687 466.174 146.237C463.472 149.665 459.549 152.986 454.407 156.199C449.35 159.256 443.594 161.722 437.138 163.6C427.514 166.399 418.532 166.633 410.191 164.303C401.815 161.851 394.562 157.355 388.432 150.814C382.424 144.238 378.038 136.199 375.274 126.698C372.369 116.709 371.828 107.354 373.651 98.632C375.561 89.7531 379.489 82.1367 385.436 75.7829C391.47 69.2717 399.176 64.6521 408.556 61.924Z" fill="#EDA12D"/>
<path d="M763.652 178.247C765.615 178.247 767.279 179.015 768.644 180.551C770.095 182.087 770.82 183.709 770.82 185.415C770.82 187.037 770.265 188.573 769.156 190.023L743.428 223.943L734.724 212.039L757.38 181.959C759.172 179.485 761.263 178.247 763.652 178.247ZM706.564 177.991C709.039 177.991 711.129 179.101 712.836 181.319L769.156 256.199C770.18 257.565 770.692 259.143 770.692 260.935C770.692 263.325 769.839 265.202 768.132 266.567C766.425 267.933 764.719 268.615 763.012 268.615C760.537 268.615 758.447 267.506 756.74 265.287L700.42 190.407C699.311 189.042 698.756 187.506 698.756 185.799C698.756 183.581 699.567 181.746 701.188 180.295C702.895 178.759 704.687 177.991 706.564 177.991ZM705.412 268.615C703.535 268.615 701.913 267.933 700.548 266.567C699.183 265.117 698.5 263.538 698.5 261.831C698.5 259.954 699.14 258.205 700.42 256.583L726.404 221.383L734.852 233.799L711.812 265.031C710.105 267.421 707.972 268.615 705.412 268.615Z" fill="#BD2DED"/>
<path d="M769.234 182.898L773.075 178.289L769.234 182.898ZM766.975 190.861L762.242 187.173L766.975 190.861ZM763.508 196.323L768.859 199.038L763.508 196.323ZM762.526 198.259L757.175 195.545L762.526 198.259ZM761.544 200.195L756.193 197.481L761.544 200.195ZM758.327 205.798L753.287 202.541L758.327 205.798ZM757.164 207.597L762.203 210.854L757.164 207.597ZM756.001 209.396L750.962 206.139L756.001 209.396ZM751.95 214.366L747.74 210.091L751.95 214.366ZM748.874 217.395L744.664 213.119L748.874 217.395ZM744.711 219.621L744.858 213.622L744.711 219.621ZM742.235 219.56L742.088 225.558L742.235 219.56ZM738.612 216.727L733.544 219.94L738.612 216.727ZM737.434 214.869L732.366 218.081L737.434 214.869ZM736.256 213.011L741.323 209.799L736.256 213.011ZM736.551 207.766L731.955 203.909L736.551 207.766ZM739.301 204.489L743.898 208.346L739.301 204.489ZM743.857 199.898L739.956 195.339L743.857 199.898ZM745.519 198.476L749.42 203.035L745.519 198.476ZM747.181 197.054L743.28 192.495L747.181 197.054ZM750.816 191.769L756.457 193.814L750.816 191.769ZM752.339 187.568L746.699 185.524L752.339 187.568ZM756.139 182.429L759.734 187.232L756.139 182.429ZM757.91 181.103L754.314 176.3L757.91 181.103ZM759.681 179.777L756.086 174.974L759.681 179.777ZM762.732 177.926L760.754 183.591L762.732 177.926ZM762.995 178.018L761.017 183.682L762.995 178.018ZM763.258 178.11L761.28 183.774L763.258 178.11ZM766.044 180.24L762.203 184.85L766.044 180.24ZM710.444 181.163L706.647 185.808L710.444 181.163ZM717.923 188.31L713.474 192.337L717.923 188.31ZM719.362 189.9L723.81 185.873L719.362 189.9ZM723.192 195.037L728.321 191.923L723.192 195.037ZM724.306 196.872L719.178 199.986L724.306 196.872ZM725.421 198.707L720.292 201.821L725.421 198.707ZM729.03 204.011L724.251 207.64L729.03 204.011ZM737.339 216.47L742.524 213.451L737.339 216.47ZM741.397 221.436L737.398 225.909L741.397 221.436ZM744.645 224.339L748.644 219.866L744.645 224.339ZM751.783 232.334L756.449 228.561L751.783 232.334ZM755.178 237.798L749.736 240.324L755.178 237.798ZM757.017 241.761L762.459 239.235L757.017 241.761ZM760.722 246.992L764.903 242.688L760.722 246.992ZM762.273 248.498L758.093 252.802L762.273 248.498ZM763.824 250.004L768.005 245.701L763.824 250.004ZM767.778 255.082L762.582 258.082L767.778 255.082ZM768.862 256.96L763.666 259.961L768.862 256.96ZM769.947 258.839L775.143 255.839L769.947 258.839ZM769.17 263.317L772.58 268.254L769.17 263.317ZM765.964 265.532L762.554 260.595L765.964 265.532ZM756.925 264.977L755.025 270.668L756.925 264.977ZM752.683 261.071L758.107 258.505L752.683 261.071ZM750.818 257.128L745.394 259.694L750.818 257.128ZM747.192 251.837L742.851 255.978L747.192 251.837ZM745.708 250.281L750.049 246.139L745.708 250.281ZM744.223 248.724L739.882 252.866L744.223 248.724ZM740.348 243.621L745.504 240.552L740.348 243.621ZM739.249 241.774L734.093 244.843L739.249 241.774ZM738.151 239.928L743.307 236.86L738.151 239.928ZM733.435 232.784L728.522 236.23L733.435 232.784ZM732.207 231.035L737.12 227.589L732.207 231.035ZM727.997 226.183L723.888 230.556L727.997 226.183ZM724.837 223.214L720.728 227.587L724.837 223.214ZM720.756 218.265L725.837 215.073L720.756 218.265ZM719.616 216.45L724.696 213.258L719.616 216.45ZM718.475 214.635L713.395 217.828L718.475 214.635ZM713.46 207.717L708.746 211.429L713.46 207.717ZM706.796 199.365L702.13 203.137L706.796 199.365ZM705.452 197.703L710.119 193.931L705.452 197.703ZM699.615 184.042L696.231 179.088L699.615 184.042ZM705.82 179.412L700.504 176.63L705.82 179.412ZM706.245 178.6L700.929 175.818L706.245 178.6ZM702.032 265.241L706.271 260.994L702.032 265.241ZM700.679 263.891L696.44 268.137L700.679 263.891ZM700.033 259.065L705.414 261.719L700.033 259.065ZM700.954 257.197L695.573 254.543L700.954 257.197ZM701.875 255.33L707.256 257.984L701.875 255.33ZM705.198 249.98L709.972 253.615L705.198 249.98ZM707.787 246.58L703.013 242.945L707.787 246.58ZM711.535 241.383L706.58 238.001L711.535 241.383ZM713.945 237.852L718.901 241.234L713.945 237.852ZM720.105 229.124L715.226 225.632L720.105 229.124ZM724.45 225.616L722.398 219.978L724.45 225.616ZM727.757 224.413L729.809 230.051L727.757 224.413ZM731.297 226.664L725.61 228.576L731.297 226.664ZM732.004 228.767L737.691 226.855L732.004 228.767ZM732.711 230.87L727.024 232.782L732.711 230.87ZM732.584 236.666L727.111 234.207L732.584 236.666ZM731.793 238.427L737.266 240.885L731.793 238.427ZM731.002 240.188L736.475 242.647L731.002 240.188ZM723.62 247.55L719.984 242.777L723.62 247.55ZM719.5 252.473L724.856 255.178L719.5 252.473ZM718.523 254.407L713.167 251.703L718.523 254.407ZM714.217 261.949L719.157 265.354L714.217 261.949ZM711.73 265.558L706.79 262.153L711.73 265.558ZM708.529 268.37L709 274.351L708.529 268.37ZM706.748 268.51L706.276 262.528L706.748 268.51ZM703.384 266.59L699.145 270.837L703.384 266.59ZM767.639 181.569L763.798 186.179L765.393 187.508L769.234 182.898L773.075 178.289L771.48 176.96L767.639 181.569ZM769.234 182.898L765.393 187.508C765.393 187.508 765.383 187.499 765.366 187.483C765.348 187.466 765.322 187.439 765.289 187.403C765.224 187.33 765.129 187.211 765.027 187.044C764.81 186.687 764.607 186.177 764.552 185.556C764.44 184.272 765.023 183.604 764.9 183.762L769.633 187.45L774.366 191.137C775.571 189.59 776.752 187.31 776.507 184.509C776.256 181.65 774.643 179.595 773.075 178.289L769.234 182.898ZM769.633 187.45L764.9 183.762L763.571 185.468L768.304 189.155L773.037 192.843L774.366 191.137L769.633 187.45ZM768.304 189.155L763.571 185.468L762.242 187.173L766.975 190.861L771.708 194.549L773.037 192.843L768.304 189.155ZM766.975 190.861L762.242 187.173C760.675 189.184 759.313 191.331 758.157 193.609L763.508 196.323L768.859 199.038C769.668 197.444 770.616 195.949 771.708 194.549L766.975 190.861ZM763.508 196.323L758.157 193.609L757.175 195.545L762.526 198.259L767.877 200.974L768.859 199.038L763.508 196.323ZM762.526 198.259L757.175 195.545L756.193 197.481L761.544 200.195L766.895 202.91L767.877 200.974L762.526 198.259ZM761.544 200.195L756.193 197.481C755.304 199.233 754.335 200.919 753.287 202.541L758.327 205.798L763.366 209.055C764.643 207.078 765.819 205.029 766.895 202.91L761.544 200.195ZM758.327 205.798L753.287 202.541L752.125 204.34L757.164 207.597L762.203 210.854L763.366 209.055L758.327 205.798ZM757.164 207.597L752.125 204.34L750.962 206.139L756.001 209.396L761.04 212.653L762.203 210.854L757.164 207.597ZM756.001 209.396L750.962 206.139C750.039 207.566 748.968 208.882 747.74 210.091L751.95 214.366L756.16 218.641C758.008 216.821 759.637 214.823 761.04 212.653L756.001 209.396ZM751.95 214.366L747.74 210.091L746.202 211.605L750.412 215.88L754.622 220.156L756.16 218.641L751.95 214.366ZM750.412 215.88L746.202 211.605L744.664 213.119L748.874 217.395L753.084 221.67L754.622 220.156L750.412 215.88ZM748.874 217.395L744.664 213.119C744.424 213.356 744.23 213.522 744.085 213.634C743.938 213.748 743.86 213.791 743.851 213.796C743.828 213.808 744.196 213.606 744.858 213.622L744.711 219.621L744.563 225.619C748.285 225.71 751.189 223.535 753.084 221.67L748.874 217.395ZM744.711 219.621L744.858 213.622L743.62 213.592L743.473 219.59L743.325 225.588L744.563 225.619L744.711 219.621ZM743.473 219.59L743.62 213.592L742.383 213.562L742.235 219.56L742.088 225.558L743.325 225.588L743.473 219.59ZM742.235 219.56L742.383 213.562C742.828 213.573 743.221 213.667 743.534 213.792C743.836 213.912 744.021 214.043 744.096 214.102C744.169 214.158 744.156 214.161 744.069 214.06C743.984 213.96 743.851 213.786 743.679 213.515L738.612 216.727L733.544 219.94C734.977 222.199 737.694 225.45 742.088 225.558L742.235 219.56ZM738.612 216.727L743.679 213.515L742.501 211.657L737.434 214.869L732.366 218.081L733.544 219.94L738.612 216.727ZM737.434 214.869L742.501 211.657L741.323 209.799L736.256 213.011L731.188 216.223L732.366 218.081L737.434 214.869ZM736.256 213.011L741.323 209.799C741.232 209.654 741.474 209.979 741.437 210.644C741.398 211.327 741.104 211.675 741.148 211.623L736.551 207.766L731.955 203.909C730.624 205.496 729.593 207.537 729.456 209.969C729.32 212.382 730.102 214.51 731.188 216.223L736.256 213.011ZM736.551 207.766L741.148 211.623L742.523 209.984L737.926 206.128L733.33 202.271L731.955 203.909L736.551 207.766ZM737.926 206.128L742.523 209.984L743.898 208.346L739.301 204.489L734.705 200.632L733.33 202.271L737.926 206.128ZM739.301 204.489L743.898 208.346C745.056 206.966 746.341 205.669 747.758 204.457L743.857 199.898L739.956 195.339C738.049 196.971 736.297 198.735 734.705 200.632L739.301 204.489ZM743.857 199.898L747.758 204.457L749.42 203.035L745.519 198.476L741.618 193.917L739.956 195.339L743.857 199.898ZM745.519 198.476L749.42 203.035L751.082 201.613L747.181 197.054L743.28 192.495L741.618 193.917L745.519 198.476ZM747.181 197.054L751.082 201.613C753.549 199.502 755.35 196.867 756.457 193.814L750.816 191.769L745.176 189.725C744.759 190.873 744.138 191.761 743.28 192.495L747.181 197.054ZM750.816 191.769L756.457 193.814L757.219 191.714L751.578 189.669L745.937 187.624L745.176 189.725L750.816 191.769ZM751.578 189.669L757.219 191.714L757.98 189.613L752.339 187.568L746.699 185.524L745.937 187.624L751.578 189.669ZM752.339 187.568L757.98 189.613C758.347 188.6 758.908 187.85 759.734 187.232L756.139 182.429L752.543 177.625C749.826 179.659 747.854 182.335 746.699 185.524L752.339 187.568ZM756.139 182.429L759.734 187.232L761.505 185.906L757.91 181.103L754.314 176.3L752.543 177.625L756.139 182.429ZM757.91 181.103L761.505 185.906L763.277 184.581L759.681 179.777L756.086 174.974L754.314 176.3L757.91 181.103ZM759.681 179.777L763.277 184.581C764.114 183.953 764.627 183.606 764.885 183.45C765.033 183.36 764.933 183.433 764.672 183.541C764.545 183.593 764.201 183.728 763.714 183.82C763.46 183.868 763.083 183.921 762.621 183.917C762.164 183.913 761.504 183.852 760.754 183.591L762.732 177.926L764.71 172.261C763.235 171.746 761.974 171.936 761.482 172.03C760.882 172.143 760.403 172.322 760.116 172.439C759.534 172.678 759.021 172.972 758.66 173.19C757.9 173.651 757.019 174.275 756.086 174.974L759.681 179.777ZM762.732 177.926L760.754 183.591L761.017 183.682L762.995 178.018L764.973 172.353L764.71 172.261L762.732 177.926ZM762.995 178.018L761.017 183.682L761.28 183.774L763.258 178.11L765.236 172.445L764.973 172.353L762.995 178.018ZM763.258 178.11L761.28 183.774C761.006 183.678 760.798 183.582 760.681 183.525C760.555 183.463 760.459 183.41 760.401 183.377C760.34 183.342 760.296 183.315 760.272 183.299C760.247 183.283 760.232 183.274 760.229 183.272C760.226 183.27 760.248 183.284 760.3 183.322C760.351 183.359 760.419 183.41 760.507 183.477C760.873 183.757 761.429 184.205 762.203 184.85L766.044 180.24L769.885 175.631C769.064 174.947 768.359 174.375 767.796 173.945C767.52 173.733 767.222 173.513 766.93 173.317C766.819 173.242 766.124 172.755 765.236 172.445L763.258 178.11ZM766.044 180.24L762.203 184.85L763.798 186.179L767.639 181.569L771.48 176.96L769.885 175.631L766.044 180.24ZM710.444 181.163L706.647 185.808L708.199 187.077L711.996 182.432L715.793 177.786L714.241 176.518L710.444 181.163ZM711.996 182.432L708.199 187.077C709.503 188.143 710.783 189.363 712.035 190.747L716.483 186.72L720.931 182.693C719.305 180.896 717.593 179.257 715.793 177.786L711.996 182.432ZM716.483 186.72L712.035 190.747L713.474 192.337L717.923 188.31L722.371 184.283L720.931 182.693L716.483 186.72ZM717.923 188.31L713.474 192.337L714.914 193.927L719.362 189.9L723.81 185.873L722.371 184.283L717.923 188.31ZM719.362 189.9L714.914 193.927C716.098 195.235 717.147 196.642 718.064 198.152L723.192 195.037L728.321 191.923C727.01 189.764 725.505 187.746 723.81 185.873L719.362 189.9ZM723.192 195.037L718.064 198.152L719.178 199.986L724.306 196.872L729.435 193.758L728.321 191.923L723.192 195.037ZM724.306 196.872L719.178 199.986L720.292 201.821L725.421 198.707L730.549 195.593L729.435 193.758L724.306 196.872ZM725.421 198.707L720.292 201.821C721.513 203.833 722.833 205.772 724.251 207.64L729.03 204.011L733.808 200.382C732.642 198.847 731.556 197.251 730.549 195.593L725.421 198.707ZM729.03 204.011L724.251 207.64L725.543 209.341L730.322 205.712L735.1 202.083L733.808 200.382L729.03 204.011ZM730.322 205.712L725.543 209.341L726.835 211.042L731.613 207.413L736.392 203.784L735.1 202.083L730.322 205.712ZM731.613 207.413L726.835 211.042C727.978 212.546 729.029 214.123 729.989 215.771L735.175 212.753L740.36 209.734C739.155 207.665 737.833 205.681 736.392 203.784L731.613 207.413ZM735.175 212.753L729.989 215.771L731.071 217.63L736.257 214.611L741.442 211.593L740.36 209.734L735.175 212.753ZM736.257 214.611L731.071 217.63L732.154 219.489L737.339 216.47L742.524 213.451L741.442 211.593L736.257 214.611ZM737.339 216.47L732.154 219.489C733.556 221.899 735.311 224.043 737.398 225.909L741.397 221.436L745.397 216.963C744.236 215.925 743.286 214.759 742.524 213.451L737.339 216.47ZM741.397 221.436L737.398 225.909L739.022 227.36L743.021 222.887L747.02 218.415L745.397 216.963L741.397 221.436ZM743.021 222.887L739.022 227.36L740.645 228.812L744.645 224.339L748.644 219.866L747.02 218.415L743.021 222.887ZM744.645 224.339L740.645 228.812C742.033 230.052 743.293 231.376 744.43 232.782L749.095 229.01L753.761 225.237C752.211 223.319 750.503 221.529 748.644 219.866L744.645 224.339ZM749.095 229.01L744.43 232.782L745.773 234.444L750.439 230.672L755.105 226.899L753.761 225.237L749.095 229.01ZM750.439 230.672L745.773 234.444L747.117 236.106L751.783 232.334L756.449 228.561L755.105 226.899L750.439 230.672ZM751.783 232.334L747.117 236.106C748.145 237.378 749.018 238.779 749.736 240.324L755.178 237.798L760.62 235.272C759.498 232.855 758.108 230.614 756.449 228.561L751.783 232.334ZM755.178 237.798L749.736 240.324L750.655 242.306L756.097 239.78L761.54 237.254L760.62 235.272L755.178 237.798ZM756.097 239.78L750.655 242.306L751.575 244.287L757.017 241.761L762.459 239.235L761.54 237.254L756.097 239.78ZM757.017 241.761L751.575 244.287C752.799 246.926 754.46 249.274 756.542 251.296L760.722 246.992L764.903 242.688C763.883 241.698 763.074 240.558 762.459 239.235L757.017 241.761ZM760.722 246.992L756.542 251.296L758.093 252.802L762.273 248.498L766.454 244.194L764.903 242.688L760.722 246.992ZM762.273 248.498L758.093 252.802L759.644 254.308L763.824 250.004L768.005 245.701L766.454 244.194L762.273 248.498ZM763.824 250.004L759.644 254.308C760.796 255.428 761.773 256.681 762.582 258.082L767.778 255.082L772.973 252.081C771.613 249.725 769.954 247.594 768.005 245.701L763.824 250.004ZM767.778 255.082L762.582 258.082L763.666 259.961L768.862 256.96L774.058 253.96L772.973 252.081L767.778 255.082ZM768.862 256.96L763.666 259.961L764.751 261.839L769.947 258.839L775.143 255.839L774.058 253.96L768.862 256.96ZM769.947 258.839L764.751 261.839C764.888 262.077 764.459 261.47 764.655 260.341C764.873 259.082 765.634 258.468 765.76 258.381L769.17 263.317L772.58 268.254C774.309 267.06 776 265.146 776.478 262.393C776.933 259.772 776.091 257.48 775.143 255.839L769.947 258.839ZM769.17 263.317L765.76 258.381L764.157 259.488L767.567 264.425L770.977 269.361L772.58 268.254L769.17 263.317ZM767.567 264.425L764.157 259.488L762.554 260.595L765.964 265.532L769.374 270.469L770.977 269.361L767.567 264.425ZM765.964 265.532L762.554 260.595C762.492 260.638 762.474 260.641 762.501 260.63C762.514 260.625 762.533 260.618 762.56 260.611C762.586 260.604 762.614 260.598 762.644 260.594C762.673 260.59 762.7 260.589 762.721 260.588C762.743 260.588 762.755 260.589 762.758 260.59C762.765 260.59 762.72 260.586 762.617 260.552L760.716 266.243L758.816 271.934C762.447 273.147 766.171 272.681 769.374 270.469L765.964 265.532ZM760.716 266.243L762.617 260.552L760.721 259.919L758.821 265.61L756.92 271.301L758.816 271.934L760.716 266.243ZM758.821 265.61L760.721 259.919L758.826 259.286L756.925 264.977L755.025 270.668L756.92 271.301L758.821 265.61ZM756.925 264.977L758.826 259.286C758.632 259.221 758.411 259.147 758.107 258.505L752.683 261.071L747.259 263.636C748.821 266.936 751.428 269.467 755.025 270.668L756.925 264.977ZM752.683 261.071L758.107 258.505L757.174 256.533L751.751 259.099L746.327 261.665L747.259 263.636L752.683 261.071ZM751.751 259.099L757.174 256.533L756.242 254.562L750.818 257.128L745.394 259.694L746.327 261.665L751.751 259.099ZM750.818 257.128L756.242 254.562C755.039 252.019 753.467 249.722 751.534 247.695L747.192 251.837L742.851 255.978C743.887 257.064 744.732 258.294 745.394 259.694L750.818 257.128ZM747.192 251.837L751.534 247.695L750.049 246.139L745.708 250.281L741.366 254.422L742.851 255.978L747.192 251.837ZM745.708 250.281L750.049 246.139L748.565 244.583L744.223 248.724L739.882 252.866L741.366 254.422L745.708 250.281ZM744.223 248.724L748.565 244.583C747.391 243.352 746.372 242.011 745.504 240.552L740.348 243.621L735.192 246.689C736.522 248.923 738.087 250.984 739.882 252.866L744.223 248.724ZM740.348 243.621L745.504 240.552L744.406 238.706L739.249 241.774L734.093 244.843L735.192 246.689L740.348 243.621ZM739.249 241.774L744.406 238.706L743.307 236.86L738.151 239.928L732.995 242.996L734.093 244.843L739.249 241.774ZM738.151 239.928L743.307 236.86C742.132 234.885 740.888 232.962 739.574 231.089L734.662 234.534L729.75 237.979C730.89 239.606 731.972 241.278 732.995 242.996L738.151 239.928ZM734.662 234.534L739.574 231.089L738.347 229.339L733.435 232.784L728.522 236.23L729.75 237.979L734.662 234.534ZM733.435 232.784L738.347 229.339L737.12 227.589L732.207 231.035L727.295 234.48L728.522 236.23L733.435 232.784ZM732.207 231.035L737.12 227.589C735.653 225.499 733.98 223.572 732.105 221.811L727.997 226.183L723.888 230.556C725.173 231.764 726.307 233.071 727.295 234.48L732.207 231.035ZM727.997 226.183L732.105 221.811L730.525 220.326L726.417 224.699L722.308 229.071L723.888 230.556L727.997 226.183ZM726.417 224.699L730.525 220.326L728.945 218.842L724.837 223.214L720.728 227.587L722.308 229.071L726.417 224.699ZM724.837 223.214L728.945 218.842C727.734 217.704 726.702 216.45 725.837 215.073L720.756 218.265L715.676 221.458C717.092 223.711 718.78 225.756 720.728 227.587L724.837 223.214ZM720.756 218.265L725.837 215.073L724.696 213.258L719.616 216.45L714.536 219.643L715.676 221.458L720.756 218.265ZM719.616 216.45L724.696 213.258L723.556 211.443L718.475 214.635L713.395 217.828L714.536 219.643L719.616 216.45ZM718.475 214.635L723.556 211.443C722.303 209.449 720.949 207.529 719.495 205.683L714.782 209.395L710.068 213.108C711.258 214.619 712.367 216.192 713.395 217.828L718.475 214.635ZM714.782 209.395L719.495 205.683L718.173 204.004L713.46 207.717L708.746 211.429L710.068 213.108L714.782 209.395ZM713.46 207.717L718.173 204.004L716.851 202.326L712.138 206.038L707.424 209.751L708.746 211.429L713.46 207.717ZM712.138 206.038L716.851 202.326C715.514 200.628 714.165 198.938 712.806 197.256L708.14 201.027L703.473 204.799C704.801 206.442 706.118 208.092 707.424 209.751L712.138 206.038ZM708.14 201.027L712.806 197.256L711.462 195.594L706.796 199.365L702.13 203.137L703.473 204.799L708.14 201.027ZM706.796 199.365L711.462 195.594L710.119 193.931L705.452 197.703L700.786 201.475L702.13 203.137L706.796 199.365ZM705.452 197.703L710.119 193.931C708.893 192.415 707.691 190.782 706.514 189.031L701.534 192.377L696.553 195.722C697.914 197.748 699.325 199.667 700.786 201.475L705.452 197.703ZM701.534 192.377L706.514 189.031L705.246 187.142L700.265 190.488L695.285 193.834L696.553 195.722L701.534 192.377ZM700.265 190.488L705.246 187.142L703.977 185.253L698.996 188.599L694.016 191.945L695.285 193.834L700.265 190.488ZM698.996 188.599L703.977 185.253C703.774 184.952 704.316 185.589 704.145 186.851C703.951 188.279 703.076 188.945 703 188.997L699.615 184.042L696.231 179.088C694.473 180.289 692.654 182.289 692.254 185.235C691.876 188.017 692.949 190.357 694.016 191.945L698.996 188.599ZM699.615 184.042L703 188.997L704.682 187.848L701.297 182.894L697.913 177.939L696.231 179.088L699.615 184.042ZM701.297 182.894L704.682 187.848L706.363 186.699L702.979 181.745L699.594 176.791L697.913 177.939L701.297 182.894ZM702.979 181.745L706.363 186.699C707.268 186.081 708.088 185.487 708.757 184.938C709.09 184.664 709.459 184.343 709.809 183.986C710.09 183.699 710.674 183.077 711.136 182.195L705.82 179.412L700.504 176.63C700.706 176.245 700.905 175.979 701.007 175.851C701.119 175.71 701.205 175.621 701.237 175.587C701.297 175.527 701.284 175.547 701.143 175.662C700.865 175.891 700.371 176.26 699.594 176.791L702.979 181.745ZM705.82 179.412L711.136 182.195L711.348 181.789L706.033 179.006L700.717 176.224L700.504 176.63L705.82 179.412ZM706.033 179.006L711.348 181.789L711.561 181.383L706.245 178.6L700.929 175.818L700.717 176.224L706.033 179.006ZM706.245 178.6L711.561 181.383C711.059 182.341 710.24 183.233 709.115 183.816C708.052 184.366 707.055 184.466 706.392 184.451C705.226 184.424 704.467 184.027 704.431 184.01C704.22 183.906 704.387 183.961 705.095 184.54L708.892 179.894L712.689 175.249C711.845 174.559 710.795 173.763 709.701 173.229C709.225 172.996 708.108 172.488 706.669 172.454C705.868 172.436 704.755 172.56 703.598 173.159C702.378 173.791 701.484 174.758 700.929 175.818L706.245 178.6ZM708.892 179.894L705.095 184.54L706.647 185.808L710.444 181.163L714.241 176.518L712.689 175.249L708.892 179.894ZM702.032 265.241L706.271 260.994L704.918 259.644L700.679 263.891L696.44 268.137L697.793 269.487L702.032 265.241ZM700.679 263.891L704.918 259.644C705.004 259.729 705.354 260.152 705.451 260.875C705.54 261.545 705.332 261.885 705.414 261.719L700.033 259.065L694.652 256.41C693.812 258.112 693.251 260.19 693.557 262.468C693.869 264.8 695.003 266.702 696.44 268.137L700.679 263.891ZM700.033 259.065L705.414 261.719L706.335 259.852L700.954 257.197L695.573 254.543L694.652 256.41L700.033 259.065ZM700.954 257.197L706.335 259.852L707.256 257.984L701.875 255.33L696.494 252.676L695.573 254.543L700.954 257.197ZM701.875 255.33L707.256 257.984C708.002 256.471 708.905 255.016 709.972 253.615L705.198 249.98L700.425 246.345C698.903 248.343 697.59 250.454 696.494 252.676L701.875 255.33ZM705.198 249.98L709.972 253.615L711.266 251.915L706.492 248.28L701.719 244.645L700.425 246.345L705.198 249.98ZM706.492 248.28L711.266 251.915L712.56 250.215L707.787 246.58L703.013 242.945L701.719 244.645L706.492 248.28ZM707.787 246.58L712.56 250.215C713.917 248.433 715.228 246.616 716.491 244.765L711.535 241.383L706.58 238.001C705.433 239.68 704.244 241.329 703.013 242.945L707.787 246.58ZM711.535 241.383L716.491 244.765L717.696 243L712.74 239.617L707.784 236.235L706.58 238.001L711.535 241.383ZM712.74 239.617L717.696 243L718.901 241.234L713.945 237.852L708.989 234.47L707.784 236.235L712.74 239.617ZM713.945 237.852L718.901 241.234C720.081 239.506 721.279 237.791 722.497 236.091L717.618 232.598L712.739 229.106C711.47 230.879 710.22 232.667 708.989 234.47L713.945 237.852ZM717.618 232.598L722.497 236.091L723.74 234.354L718.861 230.861L713.983 227.369L712.739 229.106L717.618 232.598ZM718.861 230.861L723.74 234.354L724.984 232.617L720.105 229.124L715.226 225.632L713.983 227.369L718.861 230.861ZM720.105 229.124L724.984 232.617C725.676 231.65 726.21 231.361 726.502 231.255L724.45 225.616L722.398 219.978C719.384 221.075 717.021 223.125 715.226 225.632L720.105 229.124ZM724.45 225.616L726.502 231.255L728.155 230.653L726.104 225.015L724.052 219.377L722.398 219.978L724.45 225.616ZM726.104 225.015L728.155 230.653L729.809 230.051L727.757 224.413L725.705 218.775L724.052 219.377L726.104 225.015ZM727.757 224.413L729.809 230.051C729.641 230.112 729.212 230.24 728.593 230.207C727.931 230.172 727.252 229.963 726.662 229.588C725.586 228.903 725.453 228.111 725.61 228.576L731.297 226.664L736.984 224.753C736.434 223.115 735.358 220.897 733.102 219.462C730.54 217.833 727.785 218.018 725.705 218.775L727.757 224.413ZM731.297 226.664L725.61 228.576L726.317 230.679L732.004 228.767L737.691 226.855L736.984 224.753L731.297 226.664ZM732.004 228.767L726.317 230.679L727.024 232.782L732.711 230.87L738.398 228.958L737.691 226.855L732.004 228.767ZM732.711 230.87L727.024 232.782C727.326 233.681 727.191 234.029 727.111 234.207L732.584 236.666L738.057 239.124C739.56 235.78 739.509 232.264 738.398 228.958L732.711 230.87ZM732.584 236.666L727.111 234.207L726.32 235.968L731.793 238.427L737.266 240.885L738.057 239.124L732.584 236.666ZM731.793 238.427L726.32 235.968L725.529 237.729L731.002 240.188L736.475 242.647L737.266 240.885L731.793 238.427ZM731.002 240.188L725.529 237.729C725.206 238.447 724.621 239.244 723.524 240.08L727.16 244.853L730.796 249.625C733.239 247.764 735.215 245.451 736.475 242.647L731.002 240.188ZM727.16 244.853L723.524 240.08L721.754 241.428L725.39 246.201L729.026 250.974L730.796 249.625L727.16 244.853ZM725.39 246.201L721.754 241.428L719.984 242.777L723.62 247.55L727.255 252.322L729.026 250.974L725.39 246.201ZM723.62 247.55L719.984 242.777C717.511 244.66 715.541 247.002 714.144 249.769L719.5 252.473L724.856 255.178C725.412 254.077 726.188 253.136 727.255 252.322L723.62 247.55ZM719.5 252.473L714.144 249.769L713.167 251.703L718.523 254.407L723.879 257.112L724.856 255.178L719.5 252.473ZM718.523 254.407L713.167 251.703L712.191 253.637L717.547 256.341L722.903 259.046L723.879 257.112L718.523 254.407ZM717.547 256.341L712.191 253.637C711.338 255.326 710.368 256.961 709.277 258.544L714.217 261.949L719.157 265.354C720.553 263.328 721.803 261.225 722.903 259.046L717.547 256.341ZM714.217 261.949L709.277 258.544L708.033 260.349L712.974 263.753L717.914 267.158L719.157 265.354L714.217 261.949ZM712.974 263.753L708.033 260.349L706.79 262.153L711.73 265.558L716.67 268.962L717.914 267.158L712.974 263.753ZM711.73 265.558L706.79 262.153C706.566 262.478 706.383 262.716 706.242 262.882C706.099 263.052 706.03 263.113 706.037 263.106C706.039 263.104 706.187 262.972 706.484 262.819C706.788 262.663 707.325 262.446 708.057 262.388L708.529 268.37L709 274.351C711.3 274.17 712.983 272.977 713.957 272.122C715.004 271.202 715.902 270.077 716.67 268.962L711.73 265.558ZM708.529 268.37L708.057 262.388L707.167 262.458L707.638 268.44L708.11 274.421L709 274.351L708.529 268.37ZM707.638 268.44L707.167 262.458L706.276 262.528L706.748 268.51L707.219 274.491L708.11 274.421L707.638 268.44ZM706.748 268.51L706.276 262.528C706.872 262.482 707.353 262.566 707.671 262.656C707.981 262.744 708.165 262.844 708.212 262.871C708.262 262.9 708.231 262.887 708.115 262.795C708.003 262.704 707.839 262.56 707.623 262.344L703.384 266.59L699.145 270.837C700.036 271.726 701.078 272.616 702.265 273.294C703.427 273.957 705.15 274.654 707.219 274.491L706.748 268.51ZM703.384 266.59L707.623 262.344L706.271 260.994L702.032 265.241L697.793 269.487L699.145 270.837L703.384 266.59Z" fill="#BD2DED"/>
<path d="M668.278 174.4C670.474 174.078 672.358 174.579 673.931 175.901C675.492 177.139 676.433 178.855 676.754 181.05L683.463 226.898C684.488 233.906 683.877 240.335 681.628 246.183C679.463 252.019 675.986 256.84 671.195 260.646C666.405 264.451 660.548 266.861 653.625 267.874C646.701 268.887 640.357 268.263 634.593 266.001C628.914 263.728 624.159 260.111 620.328 255.152C616.582 250.181 614.197 244.191 613.171 237.183L606.463 191.335C606.142 189.14 606.636 187.214 607.946 185.556C609.243 183.814 611.074 182.77 613.438 182.424C615.38 182.14 617.222 182.646 618.964 183.944C620.779 185.144 621.846 186.842 622.168 189.038L628.876 234.885C629.494 239.107 630.918 242.65 633.148 245.515C635.45 248.283 638.203 250.295 641.405 251.551C644.692 252.795 648.024 253.17 651.401 252.676C655.032 252.144 658.286 250.806 661.163 248.66C664.04 246.514 666.227 243.78 667.724 240.456C669.209 237.048 669.642 233.233 669.025 229.011L662.316 183.163C661.995 180.968 662.363 179.06 663.419 177.439C664.463 175.734 666.083 174.721 668.278 174.4Z" fill="#BD2DED"/>
<path d="M672.766 176.933L675.716 171.709L672.766 176.933ZM674.561 177.947L671.611 183.172L674.561 177.947ZM677.13 182.758L671.134 182.532L677.13 182.758ZM676.964 187.145L682.96 187.371L676.964 187.145ZM677.879 193.521L672.193 195.436L677.879 193.521ZM678.572 195.579L672.885 197.493L678.572 195.579ZM679.264 197.636L684.951 195.722L679.264 197.636ZM681.006 203.858L686.861 202.546L681.006 203.858ZM681.943 208.038L676.088 209.35L681.943 208.038ZM682.653 218.728L688.653 218.721L682.653 218.728ZM682.995 225.144L677.029 225.779L682.995 225.144ZM683.221 227.263L689.187 226.627L683.221 227.263ZM683.447 229.382L677.48 230.017L683.447 229.382ZM683.829 238.012L677.83 238.061L683.829 238.012ZM682.385 246.394L677.036 243.676L682.385 246.394ZM681.393 248.347L686.742 251.065L681.393 248.347ZM680.4 250.3L675.051 247.582L680.4 250.3ZM676.275 255.081L672.827 250.171L676.275 255.081ZM674.516 256.316L677.964 261.226L674.516 256.316ZM672.758 257.55L669.31 252.64L672.758 257.55ZM667.803 261.794L672.112 265.969L667.803 261.794ZM664.713 264.984L660.404 260.809L664.713 264.984ZM648.181 268.987L647.694 263.007L648.181 268.987ZM645.974 269.166L646.461 275.147L645.974 269.166ZM643.767 269.346L643.281 263.366L643.767 269.346ZM637.634 267.845L640.821 262.762L637.634 267.845ZM635.751 266.665L632.564 271.748L635.751 266.665ZM633.869 265.484L637.056 260.401L633.869 265.484ZM628.435 261.909L625.022 266.844L628.435 261.909ZM626.694 260.705L630.106 255.77L626.694 260.705ZM624.953 259.502L628.366 254.566L624.953 259.502ZM620.393 255.114L615.604 258.729L620.393 255.114ZM614.524 246.043L620.029 243.656L614.524 246.043ZM613.644 244.013L608.139 246.4L613.644 244.013ZM612.784 231.145L618.697 232.162L612.784 231.145ZM608.505 212.325L602.508 212.151L608.505 212.325ZM606.947 193.626L601.221 191.834L606.947 193.626ZM607.545 191.714L613.272 193.505L607.545 191.714ZM608.143 189.802L602.417 188.01L608.143 189.802ZM613.413 183.962L610.041 178.999L613.413 183.962ZM621.746 188.083L616.507 191.008L621.746 188.083ZM623.78 194.312L629.746 193.682L623.78 194.312ZM625.127 204.909L619.22 205.961L625.127 204.909ZM625.502 207.013L631.409 205.96L625.502 207.013ZM625.877 209.117L619.97 210.169L625.877 209.117ZM626.168 215.55L620.188 215.054L626.168 215.55ZM625.986 217.736L631.966 218.232L625.986 217.736ZM625.805 219.921L619.826 219.425L625.805 219.921ZM626.538 226.29L620.832 228.145L626.538 226.29ZM631.184 240.47L625.487 242.351L631.184 240.47ZM634.154 246.155L629.319 249.708L634.154 246.155ZM636.798 249.754L641.633 246.201L636.798 249.754ZM642.119 252.238L641.732 246.25L642.119 252.238ZM644.343 252.094L644.729 258.082L644.343 252.094ZM646.568 251.951L646.182 245.963L646.568 251.951ZM652.915 251.024L651.535 245.185L652.915 251.024ZM662.367 247.198L658.373 242.721L662.367 247.198ZM665.604 244.31L669.599 248.787L665.604 244.31ZM668.222 238.913L662.233 238.56L668.222 238.913ZM668.349 236.759L662.36 236.406L668.349 236.759ZM668.476 234.605L674.466 234.958L668.476 234.605ZM668.195 228.222L674.129 227.335L668.195 228.222ZM667.566 224.02L661.632 224.907L667.566 224.02ZM667.434 217.58L661.466 216.964L667.434 217.58ZM667.886 213.196L673.855 213.812L667.886 213.196ZM666.69 206.895L672.037 204.172L666.69 206.895ZM664.644 202.877L659.297 205.601L664.644 202.877ZM663.62 196.551L669.55 197.466L663.62 196.551ZM664.301 192.134L670.231 193.049L664.301 192.134ZM664.531 185.87L658.558 186.44L664.531 185.87ZM664.155 181.937L670.128 181.366L664.155 181.937ZM665.112 177.045L670.171 180.272L665.112 177.045ZM665.938 175.751L660.88 172.523L665.938 175.751ZM672.766 176.933L669.816 182.158L671.611 183.172L674.561 177.947L677.511 172.722L675.716 171.709L672.766 176.933ZM674.561 177.947L671.611 183.172C671.646 183.192 671.6 183.171 671.516 183.088C671.429 183.001 671.334 182.881 671.257 182.736C671.09 182.423 671.144 182.276 671.134 182.532L677.13 182.758L683.125 182.984C683.198 181.045 682.865 179 681.842 177.084C680.808 175.146 679.265 173.713 677.511 172.722L674.561 177.947ZM677.13 182.758L671.134 182.532L671.051 184.725L677.047 184.951L683.043 185.177L683.125 182.984L677.13 182.758ZM677.047 184.951L671.051 184.725L670.969 186.919L676.964 187.145L682.96 187.371L683.043 185.177L677.047 184.951ZM676.964 187.145L670.969 186.919C670.859 189.83 671.266 192.682 672.193 195.436L677.879 193.521L683.566 191.607C683.108 190.246 682.905 188.846 682.96 187.371L676.964 187.145ZM677.879 193.521L672.193 195.436L672.885 197.493L678.572 195.579L684.258 193.665L683.566 191.607L677.879 193.521ZM678.572 195.579L672.885 197.493L673.578 199.55L679.264 197.636L684.951 195.722L684.258 193.665L678.572 195.579ZM679.264 197.636L673.578 199.55C674.205 201.413 674.729 203.286 675.151 205.169L681.006 203.858L686.861 202.546C686.346 200.249 685.709 197.974 684.951 195.722L679.264 197.636ZM681.006 203.858L675.151 205.169L675.619 207.26L681.474 205.948L687.329 204.636L686.861 202.546L681.006 203.858ZM681.474 205.948L675.619 207.26L676.088 209.35L681.943 208.038L687.797 206.726L687.329 204.636L681.474 205.948ZM681.943 208.038L676.088 209.35C676.459 211.008 676.647 212.695 676.649 214.417L682.649 214.411L688.649 214.404C688.646 211.81 688.362 209.248 687.797 206.726L681.943 208.038ZM682.649 214.411L676.649 214.417L676.651 216.576L682.651 216.569L688.651 216.563L688.649 214.404L682.649 214.411ZM682.651 216.569L676.651 216.576L676.653 218.734L682.653 218.728L688.653 218.721L688.651 216.563L682.651 216.569ZM682.653 218.728L676.653 218.734C676.656 221.1 676.781 223.449 677.029 225.779L682.995 225.144L688.961 224.508C688.758 222.601 688.655 220.672 688.653 218.721L682.653 218.728ZM682.995 225.144L677.029 225.779L677.255 227.898L683.221 227.263L689.187 226.627L688.961 224.508L682.995 225.144ZM683.221 227.263L677.255 227.898L677.48 230.017L683.447 229.382L689.413 228.746L689.187 226.627L683.221 227.263ZM683.447 229.382L677.48 230.017C677.685 231.937 677.796 233.891 677.812 235.88L683.812 235.831L689.811 235.783C689.792 233.41 689.66 231.065 689.413 228.746L683.447 229.382ZM683.812 235.831L677.812 235.88L677.83 238.061L683.829 238.012L689.829 237.963L689.811 235.783L683.812 235.831ZM683.829 238.012L677.83 238.061L677.847 240.242L683.847 240.193L689.847 240.144L689.829 237.963L683.829 238.012ZM683.847 240.193L677.847 240.242C677.857 241.457 677.595 242.575 677.036 243.676L682.385 246.394L687.734 249.111C689.16 246.306 689.872 243.29 689.847 240.144L683.847 240.193ZM682.385 246.394L677.036 243.676L676.044 245.629L681.393 248.347L686.742 251.065L687.734 249.111L682.385 246.394ZM681.393 248.347L676.044 245.629L675.051 247.582L680.4 250.3L685.75 253.018L686.742 251.065L681.393 248.347ZM680.4 250.3L675.051 247.582C674.495 248.678 673.765 249.512 672.827 250.171L676.275 255.081L679.722 259.992C682.301 258.182 684.322 255.828 685.75 253.018L680.4 250.3ZM676.275 255.081L672.827 250.171L671.069 251.405L674.516 256.316L677.964 261.226L679.722 259.992L676.275 255.081ZM674.516 256.316L671.069 251.405L669.31 252.64L672.758 257.55L676.206 262.461L677.964 261.226L674.516 256.316ZM672.758 257.55L669.31 252.64C667.232 254.099 665.293 255.762 663.494 257.619L667.803 261.794L672.112 265.969C673.403 264.637 674.767 263.47 676.206 262.461L672.758 257.55ZM667.803 261.794L663.494 257.619L661.949 259.214L666.258 263.389L670.567 267.564L672.112 265.969L667.803 261.794ZM666.258 263.389L661.949 259.214L660.404 260.809L664.713 264.984L669.022 269.159L670.567 267.564L666.258 263.389ZM664.713 264.984L660.404 260.809C659.802 261.43 659.196 261.724 658.391 261.823L659.124 267.778L659.857 273.733C663.414 273.296 666.534 271.727 669.022 269.159L664.713 264.984ZM659.124 267.778L658.391 261.823L656.21 262.092L656.943 268.047L657.676 274.002L659.857 273.733L659.124 267.778ZM656.943 268.047L656.21 262.092L654.029 262.36L654.762 268.315L655.495 274.27L657.676 274.002L656.943 268.047ZM654.762 268.315L654.029 262.36C651.931 262.618 649.819 262.834 647.694 263.007L648.181 268.987L648.667 274.967C650.955 274.781 653.231 274.549 655.495 274.27L654.762 268.315ZM648.181 268.987L647.694 263.007L645.487 263.186L645.974 269.166L646.461 275.147L648.667 274.967L648.181 268.987ZM645.974 269.166L645.487 263.186L643.281 263.366L643.767 269.346L644.254 275.326L646.461 275.147L645.974 269.166ZM643.767 269.346L643.281 263.366C642.368 263.44 641.612 263.257 640.821 262.762L637.634 267.845L634.447 272.928C637.421 274.793 640.753 275.611 644.254 275.326L643.767 269.346ZM637.634 267.845L640.821 262.762L638.939 261.581L635.751 266.665L632.564 271.748L634.447 272.928L637.634 267.845ZM635.751 266.665L638.939 261.581L637.056 260.401L633.869 265.484L630.682 270.568L632.564 271.748L635.751 266.665ZM633.869 265.484L637.056 260.401C635.246 259.266 633.51 258.124 631.847 256.974L628.435 261.909L625.022 266.844C626.84 268.101 628.727 269.342 630.682 270.568L633.869 265.484ZM628.435 261.909L631.847 256.974L630.106 255.77L626.694 260.705L623.281 265.64L625.022 266.844L628.435 261.909ZM626.694 260.705L630.106 255.77L628.366 254.566L624.953 259.502L621.541 264.437L623.281 265.64L626.694 260.705ZM624.953 259.502L628.366 254.566C627.162 253.734 626.103 252.72 625.182 251.499L620.393 255.114L615.604 258.729C617.282 260.951 619.264 262.862 621.541 264.437L624.953 259.502ZM620.393 255.114L625.182 251.499L623.882 249.777L619.094 253.392L614.305 257.007L615.604 258.729L620.393 255.114ZM619.094 253.392L623.882 249.777L622.583 248.056L617.794 251.671L613.005 255.285L614.305 257.007L619.094 253.392ZM617.794 251.671L622.583 248.056C621.577 246.724 620.725 245.262 620.029 243.656L614.524 246.043L609.02 248.43C610.084 250.885 611.412 253.175 613.005 255.285L617.794 251.671ZM614.524 246.043L620.029 243.656L619.149 241.626L613.644 244.013L608.139 246.4L609.02 248.43L614.524 246.043ZM613.644 244.013L619.149 241.626L618.269 239.596L612.764 241.983L607.259 244.37L608.139 246.4L613.644 244.013ZM612.764 241.983L618.269 239.596C617.863 238.66 617.742 237.717 617.931 236.615L612.018 235.598L606.105 234.581C605.529 237.932 605.905 241.245 607.259 244.37L612.764 241.983ZM612.018 235.598L617.931 236.615L618.314 234.389L612.401 233.372L606.488 232.354L606.105 234.581L612.018 235.598ZM612.401 233.372L618.314 234.389L618.697 232.162L612.784 231.145L606.871 230.128L606.488 232.354L612.401 233.372ZM612.784 231.145L618.697 232.162C619.295 228.685 618.8 225.272 617.226 222.112L611.855 224.787L606.485 227.462C606.915 228.326 607.039 229.152 606.871 230.128L612.784 231.145ZM611.855 224.787L617.226 222.112L616.224 220.1L610.853 222.775L605.483 225.45L606.485 227.462L611.855 224.787ZM610.853 222.775L616.224 220.1L615.222 218.088L609.851 220.763L604.48 223.438L605.483 225.45L610.853 222.775ZM609.851 220.763L615.222 218.088C614.643 216.926 614.406 215.812 614.44 214.667L608.442 214.493L602.445 214.319C602.352 217.51 603.055 220.576 604.48 223.438L609.851 220.763ZM608.442 214.493L614.44 214.667L614.503 212.499L608.505 212.325L602.508 212.151L602.445 214.319L608.442 214.493ZM608.505 212.325L614.503 212.499L614.565 210.331L608.568 210.157L602.57 209.983L602.508 212.151L608.505 212.325ZM608.568 210.157L614.565 210.331C614.644 207.619 614.356 204.943 613.698 202.322L607.879 203.782L602.059 205.242C602.446 206.785 602.618 208.36 602.57 209.983L608.568 210.157ZM607.879 203.782L613.698 202.322L613.176 200.239L607.356 201.699L601.537 203.16L602.059 205.242L607.879 203.782ZM607.356 201.699L613.176 200.239L612.653 198.157L606.834 199.617L601.014 201.077L601.537 203.16L607.356 201.699ZM606.834 199.617L612.653 198.157C612.38 197.067 612.429 196.198 612.674 195.417L606.947 193.626L601.221 191.834C600.269 194.877 600.243 198.003 601.014 201.077L606.834 199.617ZM606.947 193.626L612.674 195.417L613.272 193.505L607.545 191.714L601.819 189.922L601.221 191.834L606.947 193.626ZM607.545 191.714L613.272 193.505L613.87 191.593L608.143 189.802L602.417 188.01L601.819 189.922L607.545 191.714ZM608.143 189.802L613.87 191.593C614.04 191.048 614.34 190.586 615.036 190.113L611.664 185.151L608.292 180.188C605.489 182.092 603.443 184.731 602.417 188.01L608.143 189.802ZM611.664 185.151L615.036 190.113L616.785 188.924L613.413 183.962L610.041 178.999L608.292 180.188L611.664 185.151ZM613.413 183.962L616.785 188.924L618.534 187.736L615.162 182.773L611.79 177.811L610.041 178.999L613.413 183.962ZM615.162 182.773L618.534 187.736C618.529 187.739 618.471 187.779 618.358 187.832C618.245 187.885 618.065 187.958 617.823 188.016C617.303 188.141 616.614 188.172 615.878 187.957C614.433 187.537 614.037 186.585 614.244 186.955L619.483 184.03L624.722 181.105C623.797 179.449 622.115 177.274 619.23 176.435C616.172 175.545 613.511 176.641 611.79 177.811L615.162 182.773ZM619.483 184.03L614.244 186.955L615.376 188.982L620.614 186.057L625.853 183.132L624.722 181.105L619.483 184.03ZM620.614 186.057L615.376 188.982L616.507 191.008L621.746 188.083L626.985 185.159L625.853 183.132L620.614 186.057ZM621.746 188.083L616.507 191.008C617.277 192.388 617.681 193.69 617.813 194.942L623.78 194.312L629.746 193.682C629.43 190.683 628.477 187.832 626.985 185.159L621.746 188.083ZM623.78 194.312L617.813 194.942L618.037 197.068L624.004 196.438L629.971 195.808L629.746 193.682L623.78 194.312ZM624.004 196.438L618.037 197.068L618.262 199.194L624.228 198.564L630.195 197.934L629.971 195.808L624.004 196.438ZM624.228 198.564L618.262 199.194C618.501 201.461 618.821 203.717 619.22 205.961L625.127 204.909L631.034 203.856C630.684 201.892 630.405 199.919 630.195 197.934L624.228 198.564ZM625.127 204.909L619.22 205.961L619.595 208.065L625.502 207.013L631.409 205.96L631.034 203.856L625.127 204.909ZM625.502 207.013L619.595 208.065L619.97 210.169L625.877 209.117L631.784 208.064L631.409 205.96L625.502 207.013ZM625.877 209.117L619.97 210.169C620.252 211.749 620.328 213.373 620.188 215.054L626.168 215.55L632.147 216.046C632.37 213.357 632.252 210.692 631.784 208.064L625.877 209.117ZM626.168 215.55L620.188 215.054L620.007 217.239L625.986 217.736L631.966 218.232L632.147 216.046L626.168 215.55ZM625.986 217.736L620.007 217.239L619.826 219.425L625.805 219.921L631.784 220.417L631.966 218.232L625.986 217.736ZM625.805 219.921L619.826 219.425C619.579 222.394 619.913 225.317 620.832 228.145L626.538 226.29L632.244 224.435C631.823 223.141 631.668 221.818 631.784 220.417L625.805 219.921ZM626.538 226.29L620.832 228.145L621.502 230.206L627.208 228.35L632.914 226.495L632.244 224.435L626.538 226.29ZM627.208 228.35L621.502 230.206L622.172 232.266L627.878 230.411L633.584 228.556L632.914 226.495L627.208 228.35ZM627.878 230.411L622.172 232.266C622.845 234.336 623.512 236.37 624.172 238.37L629.869 236.488L635.567 234.607C634.912 232.625 634.251 230.608 633.584 228.556L627.878 230.411ZM629.869 236.488L624.172 238.37L624.83 240.361L630.527 238.479L636.224 236.597L635.567 234.607L629.869 236.488ZM630.527 238.479L624.83 240.361L625.487 242.351L631.184 240.47L636.882 238.588L636.224 236.597L630.527 238.479ZM631.184 240.47L625.487 242.351C626.355 244.979 627.647 247.433 629.319 249.708L634.154 246.155L638.989 242.602C638.016 241.278 637.329 239.942 636.882 238.588L631.184 240.47ZM634.154 246.155L629.319 249.708L630.641 251.507L635.476 247.954L640.311 244.401L638.989 242.602L634.154 246.155ZM635.476 247.954L630.641 251.507L631.963 253.307L636.798 249.754L641.633 246.201L640.311 244.401L635.476 247.954ZM636.798 249.754L631.963 253.307C634.494 256.751 638.234 258.501 642.505 258.225L642.119 252.238L641.732 246.25C641.598 246.259 641.542 246.248 641.547 246.249C641.549 246.25 641.562 246.252 641.584 246.259C641.606 246.265 641.631 246.275 641.658 246.288C641.685 246.3 641.709 246.314 641.728 246.326C641.746 246.338 641.756 246.346 641.757 246.347C641.76 246.349 641.714 246.311 641.633 246.201L636.798 249.754ZM642.119 252.238L642.505 258.225L644.729 258.082L644.343 252.094L643.957 246.107L641.732 246.25L642.119 252.238ZM644.343 252.094L644.729 258.082L646.954 257.938L646.568 251.951L646.182 245.963L643.957 246.107L644.343 252.094ZM646.568 251.951L646.954 257.938C649.487 257.775 651.936 257.421 654.295 256.863L652.915 251.024L651.535 245.185C649.88 245.576 648.098 245.84 646.182 245.963L646.568 251.951ZM652.915 251.024L654.295 256.863L656.302 256.389L654.922 250.55L653.542 244.711L651.535 245.185L652.915 251.024ZM654.922 250.55L656.302 256.389L658.309 255.915L656.929 250.076L655.549 244.236L653.542 244.711L654.922 250.55ZM656.929 250.076L658.309 255.915C661.338 255.199 664.039 253.748 666.362 251.675L662.367 247.198L658.373 242.721C657.459 243.536 656.534 244.004 655.549 244.236L656.929 250.076ZM662.367 247.198L666.362 251.675L667.98 250.231L663.986 245.754L659.991 241.277L658.373 242.721L662.367 247.198ZM663.986 245.754L667.98 250.231L669.599 248.787L665.604 244.31L661.61 239.833L659.991 241.277L663.986 245.754ZM665.604 244.31L669.599 248.787C672.395 246.292 673.991 243.013 674.212 239.266L668.222 238.913L662.233 238.56C662.2 239.12 662.051 239.439 661.61 239.833L665.604 244.31ZM668.222 238.913L674.212 239.266L674.339 237.112L668.349 236.759L662.36 236.406L662.233 238.56L668.222 238.913ZM668.349 236.759L674.339 237.112L674.466 234.958L668.476 234.605L662.487 234.252L662.36 236.406L668.349 236.759ZM668.476 234.605L674.466 234.958C674.617 232.396 674.506 229.853 674.129 227.335L668.195 228.222L662.261 229.11C662.513 230.794 662.589 232.506 662.487 234.252L668.476 234.605ZM668.195 228.222L674.129 227.335L673.815 225.233L667.881 226.121L661.947 227.009L662.261 229.11L668.195 228.222ZM667.881 226.121L673.815 225.233L673.5 223.132L667.566 224.02L661.632 224.907L661.947 227.009L667.881 226.121ZM667.566 224.02L673.5 223.132C673.263 221.547 673.226 219.906 673.403 218.196L667.434 217.58L661.466 216.964C661.19 219.638 661.241 222.29 661.632 224.907L667.566 224.02ZM667.434 217.58L673.403 218.196L673.629 216.004L667.66 215.388L661.692 214.773L661.466 216.964L667.434 217.58ZM667.66 215.388L673.629 216.004L673.855 213.812L667.886 213.196L661.918 212.581L661.692 214.773L667.66 215.388ZM667.886 213.196L673.855 213.812C674.202 210.443 673.572 207.185 672.037 204.172L666.69 206.895L661.344 209.619C661.856 210.623 662.023 211.567 661.918 212.581L667.886 213.196ZM666.69 206.895L672.037 204.172L671.013 202.163L665.667 204.886L660.321 207.61L661.344 209.619L666.69 206.895ZM665.667 204.886L671.013 202.163L669.99 200.154L664.644 202.877L659.297 205.601L660.321 207.61L665.667 204.886ZM664.644 202.877L669.99 200.154C669.533 199.256 669.403 198.419 669.55 197.466L663.62 196.551L657.69 195.636C657.155 199.1 657.708 202.481 659.297 205.601L664.644 202.877ZM663.62 196.551L669.55 197.466L669.89 195.257L663.961 194.342L658.031 193.427L657.69 195.636L663.62 196.551ZM663.961 194.342L669.89 195.257L670.231 193.049L664.301 192.134L658.372 191.219L658.031 193.427L663.961 194.342ZM664.301 192.134L670.231 193.049C670.638 190.412 670.744 187.822 670.504 185.3L664.531 185.87L658.558 186.44C658.693 187.853 658.646 189.438 658.372 191.219L664.301 192.134ZM664.531 185.87L670.504 185.3L670.316 183.333L664.343 183.903L658.37 184.474L658.558 186.44L664.531 185.87ZM664.343 183.903L670.316 183.333L670.128 181.366L664.155 181.937L658.183 182.507L658.37 184.474L664.343 183.903ZM664.155 181.937L670.128 181.366C670.079 180.853 670.112 180.543 670.142 180.39C670.169 180.252 670.194 180.235 670.171 180.272L665.112 177.045L660.054 173.818C658.325 176.529 657.905 179.594 658.183 182.507L664.155 181.937ZM665.112 177.045L670.171 180.272L670.996 178.978L665.938 175.751L660.88 172.523L660.054 173.818L665.112 177.045ZM665.938 175.751L670.996 178.978L671.822 177.684L666.764 174.456L661.706 171.229L660.88 172.523L665.938 175.751ZM666.764 174.456L671.822 177.684C672.236 177.034 672.275 177.054 672.041 177.298C671.958 177.384 671.734 177.612 671.385 177.865C671.129 178.05 670.267 178.657 668.949 178.874C667.226 179.159 665.11 178.682 663.59 176.996C662.439 175.72 662.208 174.357 662.148 173.949L668.085 173.08L674.022 172.212C673.949 171.71 673.692 170.279 672.503 168.961C670.945 167.233 668.779 166.74 666.995 167.035C665.614 167.262 664.678 167.905 664.336 168.153C663.902 168.469 663.579 168.785 663.386 168.986C662.711 169.688 662.117 170.584 661.706 171.229L666.764 174.456ZM668.085 173.08L662.148 173.949L662.204 174.326L668.14 173.457L674.077 172.589L674.022 172.212L668.085 173.08ZM668.14 173.457L662.204 174.326L662.259 174.703L668.196 173.834L674.132 172.966L674.077 172.589L668.14 173.457ZM668.196 173.834L662.259 174.703C662.544 176.65 663.662 177.886 663.972 178.225C664.448 178.745 664.95 179.152 665.326 179.435C666.098 180.015 667.042 180.592 668.021 181.145L670.971 175.92L673.921 170.695C673.105 170.234 672.688 169.957 672.535 169.842C672.449 169.777 672.598 169.876 672.828 170.128C672.948 170.259 673.175 170.523 673.408 170.914C673.63 171.285 673.989 171.989 674.132 172.966L668.196 173.834ZM670.971 175.92L668.021 181.145L669.816 182.158L672.766 176.933L675.716 171.709L673.921 170.695L670.971 175.92Z" fill="#BD2DED"/>
<path d="M596.056 257.346C598.2 257.914 599.788 259.085 600.819 260.858C601.955 262.571 602.238 264.5 601.67 266.645C601.124 268.707 599.923 270.243 598.067 271.252C596.315 272.201 594.367 272.391 592.222 271.823L552.008 261.174C549.863 260.606 548.234 259.425 547.121 257.629C546.112 255.773 545.891 253.772 546.459 251.628L565.397 180.109C565.965 177.964 567.177 176.387 569.033 175.378C570.911 174.286 573.005 174.046 575.315 174.658C577.295 175.182 578.831 176.383 579.922 178.261C581.118 180.079 581.432 182.06 580.864 184.204L563.204 250.898L561.039 248.073L596.056 257.346Z" fill="#BD2DED"/>
<path d="M599.402 261.323L594.81 265.186L599.402 261.323ZM600.402 266.968L596.926 262.077L600.402 266.968ZM598.838 268.079L595.362 263.188L598.838 268.079ZM597.274 269.19L600.75 274.081L597.274 269.19ZM591.784 270.735L591.55 276.73L591.784 270.735ZM587.59 270.572L587.823 264.576L587.59 270.572ZM581.286 269.863L580.189 275.762L581.286 269.863ZM577.074 269.08L578.17 263.181L577.074 269.08ZM570.936 267.223L568.583 272.742L570.936 267.223ZM566.966 265.53L564.612 271.049L566.966 265.53ZM560.895 263.42L562.469 257.63L560.895 263.42ZM556.773 262.3L555.2 268.09L556.773 262.3ZM551.066 259.574L547.557 264.442L551.066 259.574ZM547.58 257.061L551.088 252.194L547.58 257.061ZM550.138 239.543L544.806 236.791L550.138 239.543ZM552.515 231.334L546.52 231.567L552.515 231.334ZM553.337 220.503L547.717 218.404L553.337 220.503ZM556.408 210.268L550.464 209.447L556.408 210.268ZM579.236 184.924L573.51 183.131L579.236 184.924ZM578.403 191.576L584.393 191.228L578.403 191.576ZM578.533 193.82L572.543 194.167L578.533 193.82ZM577.493 202.383L572.047 199.864L577.493 202.383ZM576.583 204.351L582.028 206.87V206.87L576.583 204.351ZM573.122 216.693L567.197 215.747L573.122 216.693ZM570.966 222.751L576.173 225.733L570.966 222.751ZM569.867 224.669L564.661 221.687L569.867 224.669ZM567.543 235.102L561.559 235.55L567.543 235.102ZM567.712 237.356L573.695 236.908L567.712 237.356ZM566.094 245.766L560.471 243.675L566.094 245.766ZM565.346 247.778L570.97 249.87L565.346 247.778ZM565.27 250.344L562.892 244.835L565.27 250.344ZM565.967 250.043L568.345 255.552L565.967 250.043ZM566.664 249.742L564.287 244.233L566.664 249.742ZM570.833 250.014L569.478 255.859L570.833 250.014ZM572.915 250.497L574.27 244.652L572.915 250.497ZM574.997 250.98L576.352 245.135L574.997 250.98ZM581.026 253.243L583.834 247.94L581.026 253.243ZM582.964 254.269L585.772 248.966L582.964 254.269ZM584.902 255.295L582.095 260.597L584.902 255.295ZM590.299 256.927L590.524 250.931L590.299 256.927ZM593.619 257.052L593.394 263.048L593.619 257.052ZM598.063 259.732L602.655 255.87L598.063 259.732ZM599.402 261.323L594.81 265.186L596.149 266.777L600.74 262.914L605.331 259.052L603.993 257.461L599.402 261.323ZM600.74 262.914L596.149 266.777C596.33 266.992 595.549 266.194 595.68 264.622C595.824 262.897 596.889 262.104 596.926 262.077L600.402 266.968L603.878 271.858C605.479 270.72 607.382 268.696 607.638 265.619C607.882 262.696 606.488 260.427 605.331 259.052L600.74 262.914ZM600.402 266.968L596.926 262.077L595.362 263.188L598.838 268.079L602.314 272.97L603.878 271.858L600.402 266.968ZM598.838 268.079L595.362 263.188L593.799 264.3L597.274 269.19L600.75 274.081L602.314 272.97L598.838 268.079ZM597.274 269.19L593.799 264.3C593.418 264.57 592.921 264.775 592.017 264.74L591.784 270.735L591.55 276.73C594.84 276.858 598.003 276.033 600.75 274.081L597.274 269.19ZM591.784 270.735L592.017 264.74L589.92 264.658L589.687 270.653L589.454 276.649L591.55 276.73L591.784 270.735ZM589.687 270.653L589.92 264.658L587.823 264.576L587.59 270.572L587.357 276.567L589.454 276.649L589.687 270.653ZM587.59 270.572L587.823 264.576C586.022 264.506 584.209 264.303 582.382 263.964L581.286 269.863L580.189 275.762C582.574 276.205 584.964 276.474 587.357 276.567L587.59 270.572ZM581.286 269.863L582.382 263.964L580.276 263.572L579.18 269.471L578.083 275.37L580.189 275.762L581.286 269.863ZM579.18 269.471L580.276 263.572L578.17 263.181L577.074 269.08L575.977 274.979L578.083 275.37L579.18 269.471ZM577.074 269.08L578.17 263.181C576.499 262.87 574.874 262.38 573.29 261.704L570.936 267.223L568.583 272.742C570.969 273.76 573.436 274.507 575.977 274.979L577.074 269.08ZM570.936 267.223L573.29 261.704L571.304 260.857L568.951 266.376L566.598 271.896L568.583 272.742L570.936 267.223ZM568.951 266.376L571.304 260.857L569.319 260.011L566.966 265.53L564.612 271.049L566.598 271.896L568.951 266.376ZM566.966 265.53L569.319 260.011C567.083 259.057 564.799 258.263 562.469 257.63L560.895 263.42L559.322 269.21C561.115 269.697 562.878 270.309 564.612 271.049L566.966 265.53ZM560.895 263.42L562.469 257.63L560.407 257.07L558.834 262.86L557.261 268.65L559.322 269.21L560.895 263.42ZM558.834 262.86L560.407 257.07L558.346 256.509L556.773 262.3L555.2 268.09L557.261 268.65L558.834 262.86ZM556.773 262.3L558.346 256.509C556.984 256.139 555.737 255.545 554.575 254.707L551.066 259.574L547.557 264.442C549.881 266.117 552.439 267.339 555.2 268.09L556.773 262.3ZM551.066 259.574L554.575 254.707L552.831 253.451L549.323 258.318L545.814 263.185L547.557 264.442L551.066 259.574ZM549.323 258.318L552.831 253.451L551.088 252.194L547.58 257.061L544.071 261.928L545.814 263.185L549.323 258.318ZM547.58 257.061L551.088 252.194C551.041 252.16 551.094 252.19 551.187 252.307C551.286 252.431 551.394 252.61 551.473 252.833C551.644 253.316 551.54 253.582 551.589 253.385L545.764 251.944L539.94 250.503C539.455 252.461 539.387 254.657 540.164 256.845C540.946 259.05 542.399 260.723 544.071 261.928L547.58 257.061ZM545.764 251.944L551.589 253.385L552.122 251.23L546.297 249.789L540.473 248.348L539.94 250.503L545.764 251.944ZM546.297 249.789L552.122 251.23L552.655 249.076L546.83 247.635L541.006 246.194L540.473 248.348L546.297 249.789ZM546.83 247.635L552.655 249.076C553.077 247.369 553.681 245.76 554.467 244.238L549.135 241.487L543.803 238.735C542.582 241.101 541.65 243.591 541.006 246.194L546.83 247.635ZM549.135 241.487L554.467 244.238L555.47 242.294L550.138 239.543L544.806 236.791L543.803 238.735L549.135 241.487ZM550.138 239.543L555.47 242.294L556.473 240.35L551.141 237.598L545.809 234.847L544.806 236.791L550.138 239.543ZM551.141 237.598L556.473 240.35C557.962 237.464 558.637 234.345 558.51 231.1L552.515 231.334L546.52 231.567C546.567 232.787 546.326 233.845 545.809 234.847L551.141 237.598ZM552.515 231.334L558.51 231.1L558.424 228.868L552.428 229.101L546.433 229.334L546.52 231.567L552.515 231.334ZM552.428 229.101L558.424 228.868L558.337 226.635L552.341 226.868L546.346 227.102L546.433 229.334L552.428 229.101ZM552.341 226.868L558.337 226.635C558.279 225.164 558.497 223.838 558.958 222.602L553.337 220.503L547.717 218.404C546.676 221.19 546.229 224.108 546.346 227.102L552.341 226.868ZM553.337 220.503L558.958 222.602L559.709 220.592L554.088 218.492L548.467 216.393L547.717 218.404L553.337 220.503ZM554.088 218.492L559.709 220.592L560.46 218.581L554.839 216.482L549.218 214.382L548.467 216.393L554.088 218.492ZM554.839 216.482L560.46 218.581C561.366 216.156 561.996 213.656 562.351 211.089L556.408 210.268L550.464 209.447C550.23 211.143 549.815 212.786 549.218 214.382L554.839 216.482ZM556.408 210.268L562.351 211.089L562.646 208.958L556.702 208.136L550.759 207.315L550.464 209.447L556.408 210.268ZM556.702 208.136L562.646 208.958L562.94 206.826L556.997 206.005L551.053 205.184L550.759 207.315L556.702 208.136ZM556.997 206.005L562.94 206.826C563.138 205.394 563.577 204.021 564.278 202.684L558.965 199.897L553.651 197.111C552.318 199.653 551.444 202.353 551.053 205.184L556.997 206.005ZM558.965 199.897L564.278 202.684L565.296 200.743L559.982 197.957L554.668 195.171L553.651 197.111L558.965 199.897ZM559.982 197.957L565.296 200.743L566.313 198.803L560.999 196.017L555.686 193.23L554.668 195.171L559.982 197.957ZM560.999 196.017L566.313 198.803C567.59 196.369 568.504 193.809 569.039 191.137L563.156 189.959L557.273 188.781C556.967 190.305 556.444 191.784 555.686 193.23L560.999 196.017ZM563.156 189.959L569.039 191.137L569.459 189.039L563.576 187.861L557.693 186.682L557.273 188.781L563.156 189.959ZM563.576 187.861L569.459 189.039L569.88 186.941L563.996 185.762L558.113 184.584L557.693 186.682L563.576 187.861ZM563.996 185.762L569.88 186.941C570.144 185.622 570.637 184.455 571.366 183.389L566.413 180.002L561.46 176.616C559.807 179.033 558.69 181.706 558.113 184.584L563.996 185.762ZM566.413 180.002L571.366 183.389L572.557 181.647L567.604 178.261L562.651 174.874L561.46 176.616L566.413 180.002ZM567.604 178.261L572.557 181.647L573.747 179.906L568.794 176.519L563.842 173.133L562.651 174.874L567.604 178.261ZM568.794 176.519L573.747 179.906C573.751 179.901 573.677 180.01 573.495 180.153C573.305 180.303 573.055 180.443 572.766 180.534C572.167 180.723 571.869 180.567 572.158 180.654L573.897 174.912L575.637 169.17C573.715 168.587 571.46 168.364 569.161 169.089C566.804 169.831 565.051 171.363 563.842 173.133L568.794 176.519ZM573.897 174.912L572.158 180.654L574.369 181.324L576.109 175.582L577.848 169.84L575.637 169.17L573.897 174.912ZM576.109 175.582L574.369 181.324L576.58 181.994L578.32 176.252L580.06 170.51L577.848 169.84L576.109 175.582ZM578.32 176.252L576.58 181.994C576.814 182.065 575.895 181.848 575.256 180.65C574.612 179.443 574.947 178.542 574.882 178.75L580.608 180.543L586.334 182.335C586.954 180.352 587.251 177.641 585.844 175.004C584.443 172.376 582.036 171.109 580.06 170.51L578.32 176.252ZM580.608 180.543L574.882 178.75L574.196 180.94L579.922 182.733L585.648 184.526L586.334 182.335L580.608 180.543ZM579.922 182.733L574.196 180.94L573.51 183.131L579.236 184.924L584.962 186.716L585.648 184.526L579.922 182.733ZM579.236 184.924L573.51 183.131C572.613 185.998 572.24 188.94 572.413 191.923L578.403 191.576L584.393 191.228C584.305 189.723 584.488 188.23 584.962 186.716L579.236 184.924ZM578.403 191.576L572.413 191.923L572.543 194.167L578.533 193.82L584.523 193.472L584.393 191.228L578.403 191.576ZM578.533 193.82L572.543 194.167L572.673 196.411L578.663 196.064L584.653 195.716L584.523 193.472L578.533 193.82ZM578.663 196.064L572.673 196.411C572.748 197.707 572.528 198.825 572.047 199.864L577.493 202.383L582.939 204.901C584.279 202.003 584.838 198.909 584.653 195.716L578.663 196.064ZM577.493 202.383L572.047 199.864L571.137 201.833L576.583 204.351L582.028 206.87L582.939 204.901L577.493 202.383ZM576.583 204.351L571.137 201.833L570.226 203.801L575.672 206.32L581.118 208.838L582.028 206.87L576.583 204.351ZM575.672 206.32L570.226 203.801C569.087 206.264 568.3 208.837 567.874 211.507L573.799 212.453L579.724 213.399C579.975 211.828 580.437 210.312 581.118 208.838L575.672 206.32ZM573.799 212.453L567.874 211.507L567.536 213.627L573.461 214.573L579.386 215.519L579.724 213.399L573.799 212.453ZM573.461 214.573L567.536 213.627L567.197 215.747L573.122 216.693L579.047 217.639L579.386 215.519L573.461 214.573ZM573.122 216.693L567.197 215.747C566.977 217.129 566.509 218.46 565.76 219.769L570.966 222.751L576.173 225.733C577.621 223.203 578.591 220.497 579.047 217.639L573.122 216.693ZM570.966 222.751L565.76 219.769L564.661 221.687L569.867 224.669L575.074 227.651L576.173 225.733L570.966 222.751ZM569.867 224.669L564.661 221.687L563.562 223.606L568.768 226.588L573.975 229.57L575.074 227.651L569.867 224.669ZM568.768 226.588L563.562 223.606C561.853 226.589 561.134 229.875 561.39 233.296L567.374 232.847L573.357 232.399C573.275 231.311 573.486 230.424 573.975 229.57L568.768 226.588ZM567.374 232.847L561.39 233.296L561.559 235.55L567.543 235.102L573.526 234.653L573.357 232.399L567.374 232.847ZM567.543 235.102L561.559 235.55L561.728 237.805L567.712 237.356L573.695 236.908L573.526 234.653L567.543 235.102ZM567.712 237.356L561.728 237.805C561.836 239.243 561.65 240.506 561.219 241.663L566.843 243.755L572.466 245.847C573.532 242.981 573.925 239.978 573.695 236.908L567.712 237.356ZM566.843 243.755L561.219 241.663L560.471 243.675L566.094 245.766L571.718 247.858L572.466 245.847L566.843 243.755ZM566.094 245.766L560.471 243.675L559.723 245.686L565.346 247.778L570.97 249.87L571.718 247.858L566.094 245.766ZM565.346 247.778L559.723 245.686C559.363 246.653 558.814 248.219 558.769 249.749C558.756 250.188 558.644 252.984 561.064 254.98C563.907 257.327 567.003 256.131 567.647 255.853L565.27 250.344L562.892 244.835C563.188 244.707 566.026 243.517 568.701 245.725C569.894 246.709 570.381 247.894 570.577 248.608C570.769 249.309 570.771 249.864 570.763 250.107C570.743 250.782 570.581 250.914 570.97 249.87L565.346 247.778ZM565.27 250.344L567.647 255.853L568.345 255.552L565.967 250.043L563.59 244.534L562.892 244.835L565.27 250.344ZM565.967 250.043L568.345 255.552L569.042 255.251L566.664 249.742L564.287 244.233L563.59 244.534L565.967 250.043ZM566.664 249.742L569.042 255.251C568.75 255.377 568.501 255.449 568.321 255.491C568.14 255.533 568.001 255.551 567.918 255.559C567.762 255.575 567.721 255.564 567.838 255.572C567.946 255.579 568.136 255.598 568.424 255.646C568.708 255.693 569.057 255.762 569.478 255.859L570.833 250.014L572.188 244.169C570.979 243.889 569.763 243.672 568.621 243.597C567.644 243.533 565.963 243.51 564.287 244.233L566.664 249.742ZM570.833 250.014L569.478 255.859L571.56 256.342L572.915 250.497L574.27 244.652L572.188 244.169L570.833 250.014ZM572.915 250.497L571.56 256.342L573.642 256.825L574.997 250.98L576.352 245.135L574.27 244.652L572.915 250.497ZM574.997 250.98L573.642 256.825C575.205 257.187 576.728 257.756 578.219 258.545L581.026 253.243L583.834 247.94C581.449 246.677 578.952 245.738 576.352 245.135L574.997 250.98ZM581.026 253.243L578.219 258.545L580.157 259.571L582.964 254.269L585.772 248.966L583.834 247.94L581.026 253.243ZM582.964 254.269L580.157 259.571L582.095 260.597L584.902 255.295L587.71 249.992L585.772 248.966L582.964 254.269ZM584.902 255.295L582.095 260.597C584.586 261.916 587.271 262.818 590.074 262.923L590.299 256.927L590.524 250.931C590.007 250.912 589.094 250.725 587.71 249.992L584.902 255.295ZM590.299 256.927L590.074 262.923L591.734 262.985L591.959 256.99L592.184 250.994L590.524 250.931L590.299 256.927ZM591.959 256.99L591.734 262.985L593.394 263.048L593.619 257.052L593.844 251.056L592.184 250.994L591.959 256.99ZM593.619 257.052L593.394 263.048C594.213 263.079 594.774 263.105 595.11 263.126C595.296 263.137 595.328 263.142 595.276 263.136C595.255 263.134 595.208 263.128 595.143 263.119C595.087 263.111 594.958 263.091 594.79 263.055C594.71 263.037 594.231 262.939 593.659 262.686C593.426 262.583 592.655 262.235 591.891 261.487C591.05 260.662 589.529 258.555 590.293 255.67L596.093 257.206L601.893 258.741C602.658 255.854 601.135 253.744 600.291 252.917C599.526 252.166 598.75 251.816 598.511 251.71C597.927 251.452 597.43 251.348 597.326 251.326C596.992 251.253 596.706 251.221 596.613 251.211C596.357 251.182 596.081 251.163 595.854 251.149C595.366 251.118 594.685 251.088 593.844 251.056L593.619 257.052ZM596.093 257.206L590.293 255.67L590.282 255.71L596.082 257.246L601.882 258.782L601.893 258.741L596.093 257.206ZM596.082 257.246L590.282 255.71L590.272 255.75L596.072 257.286L601.872 258.822L601.882 258.782L596.082 257.246ZM596.072 257.286L590.272 255.75C589.967 256.899 590.083 257.843 590.15 258.252C590.227 258.729 590.347 259.099 590.421 259.305C590.567 259.717 590.728 260.022 590.794 260.145C590.941 260.418 591.08 260.625 591.127 260.696C591.246 260.872 591.361 261.023 591.421 261.102C591.561 261.286 591.733 261.499 591.908 261.715C592.272 262.162 592.798 262.793 593.472 263.595L598.063 259.732L602.655 255.87C601.99 255.08 601.515 254.509 601.215 254.14C601.059 253.948 600.982 253.851 600.959 253.82C600.938 253.792 600.992 253.861 601.071 253.979C601.099 254.02 601.224 254.204 601.362 254.46C601.423 254.574 601.58 254.872 601.725 255.278C601.797 255.482 601.916 255.85 601.994 256.324C602.06 256.731 602.176 257.674 601.872 258.822L596.072 257.286ZM598.063 259.732L593.472 263.595L594.81 265.186L599.402 261.323L603.993 257.461L602.655 255.87L598.063 259.732Z" fill="#BD2DED"/>
<path d="M495.564 262.591C493.175 262.591 491.212 261.866 489.676 260.415C488.225 258.879 487.5 257.002 487.5 254.783V180.799C487.5 178.581 488.225 176.746 489.676 175.295C491.212 173.759 493.089 172.991 495.308 172.991H536.908C539.127 172.991 540.961 173.717 542.412 175.167C543.948 176.533 544.716 178.325 544.716 180.543C544.716 182.421 543.948 184.085 542.412 185.535C540.961 186.986 539.127 187.711 536.908 187.711H502.348L503.5 186.175V211.903L502.604 210.239H531.148C533.367 210.239 535.201 210.965 536.652 212.415C538.188 213.781 538.956 215.573 538.956 217.791C538.956 219.669 538.188 221.333 536.652 222.783C535.201 224.234 533.367 224.959 531.148 224.959H502.348L503.5 223.807V254.783C503.5 257.002 502.689 258.879 501.068 260.415C499.532 261.866 497.697 262.591 495.564 262.591Z" fill="#BD2DED"/>
<path d="M489.496 258.606L486.202 263.62L489.496 258.606ZM487.459 253.644L493.371 254.668L487.459 253.644ZM487.835 251.476L481.923 250.452L487.835 251.476ZM488.193 242.85L482.289 243.921L488.193 242.85ZM487.805 240.714L481.901 241.785L487.805 240.714ZM487.418 238.578L493.321 237.507L487.418 238.578ZM486.595 232.17L480.612 232.62L486.595 232.17ZM486.498 221.49L480.56 220.628L486.498 221.49ZM487.618 208.674L481.618 208.635L487.618 208.674ZM486.936 197.994L480.99 198.791L486.936 197.994ZM486.501 187.314L480.51 186.998L486.501 187.314ZM491.194 177.092L486.743 173.069L491.194 177.092ZM521.312 171.499L520.584 165.544L521.312 171.499ZM531.992 172.812L530.658 178.662L531.992 172.812ZM539.701 175.485L542.077 169.976L539.701 175.485ZM541.503 176.262L539.127 181.772L541.503 176.262ZM543.342 180.396L549.103 182.072L543.342 180.396ZM542.191 184.352L536.43 182.676L542.191 184.352ZM535.888 188.508L534.608 182.646L535.888 188.508ZM527.245 188.638L525.363 194.335L527.245 188.638ZM525.109 187.932L523.227 193.629L525.109 187.932ZM522.973 187.226L524.855 181.529L522.973 187.226ZM516.565 187.219L518.434 192.92L516.565 187.219ZM514.429 187.919L512.56 182.218L514.429 187.919ZM512.293 188.619L510.424 182.918L512.293 188.619ZM507.436 189.227L505.884 195.023L507.436 189.227ZM505.231 188.637L503.68 194.433L505.231 188.637ZM504.332 195.67L498.362 196.273L504.332 195.67ZM503.799 202.078L509.595 203.628L503.799 202.078ZM503.228 204.214L497.431 202.665L503.228 204.214ZM502.656 206.35L496.86 204.801L502.656 206.35ZM503.973 209.159L505.046 215.063L503.973 209.159ZM506.872 208.632L505.799 202.729L506.872 208.632ZM512.249 208.55L512.832 202.578L512.249 208.55ZM522.929 209.408L523.17 203.413L522.929 209.408ZM527.201 209.579L526.961 215.575L527.201 209.579ZM533.136 211.415L529.956 216.503L533.136 211.415ZM534.957 212.554L538.138 207.466L534.957 212.554ZM536.778 213.692L533.597 218.78L536.778 213.692ZM537.765 217.641L533.029 213.957L537.765 217.641ZM530.704 223.559L529.358 217.712L530.704 223.559ZM526.713 224.478L528.058 230.325L526.713 224.478ZM520.515 225.212L520.429 219.213L520.515 225.212ZM518.379 225.243L518.465 231.242L518.379 225.243ZM516.243 225.273L516.157 219.274L516.243 225.273ZM507.699 224.19L506.458 230.06L507.699 224.19ZM505.563 223.738L506.804 217.868L505.563 223.738ZM503.031 225.996L508.88 224.657L503.031 225.996ZM503.479 227.954L497.631 229.293L503.479 227.954ZM503.927 229.911L498.079 231.25L503.927 229.911ZM504.306 236.051L510.281 236.598L504.306 236.051ZM503.915 240.323L497.94 239.776L503.915 240.323ZM503.28 246.731L497.314 246.095L503.28 246.731ZM502.825 251.003L496.859 250.367L502.825 251.003ZM501.134 256.804L495.81 254.037L501.134 256.804ZM500.234 258.535L505.558 261.302L500.234 258.535ZM499.334 260.266L494.01 257.499L499.334 260.266ZM497.258 262.781L496.59 268.744L497.258 262.781ZM496.29 262.673L496.959 256.71L496.29 262.673ZM492.964 260.883L496.258 255.868L492.964 260.883ZM491.23 259.744L494.524 254.729L492.791 253.591L489.496 258.606L486.202 263.62L487.936 264.759L491.23 259.744ZM489.496 258.606L492.791 253.591C492.764 253.574 492.831 253.613 492.934 253.732C493.042 253.857 493.153 254.028 493.237 254.232C493.416 254.668 493.332 254.897 493.371 254.668L487.459 253.644L481.547 252.621C481.211 254.561 481.279 256.7 482.137 258.79C483.006 260.907 484.491 262.497 486.202 263.62L489.496 258.606ZM487.459 253.644L493.371 254.668L493.747 252.499L487.835 251.476L481.923 250.452L481.547 252.621L487.459 253.644ZM487.835 251.476L493.747 252.499L494.122 250.331L488.21 249.307L482.298 248.283L481.923 250.452L487.835 251.476ZM488.21 249.307L494.122 250.331C494.616 247.479 494.611 244.617 494.096 241.779L488.193 242.85L482.289 243.921C482.549 245.355 482.556 246.798 482.298 248.283L488.21 249.307ZM488.193 242.85L494.096 241.779L493.709 239.643L487.805 240.714L481.901 241.785L482.289 243.921L488.193 242.85ZM487.805 240.714L493.709 239.643L493.321 237.507L487.418 238.578L481.514 239.649L481.901 241.785L487.805 240.714ZM487.418 238.578L493.321 237.507C492.971 235.574 492.723 233.645 492.578 231.72L486.595 232.17L480.612 232.62C480.789 234.967 481.09 237.31 481.514 239.649L487.418 238.578ZM486.595 232.17L492.578 231.72L492.418 229.584L486.435 230.034L480.452 230.484L480.612 232.62L486.595 232.17ZM486.435 230.034L492.418 229.584L492.257 227.448L486.274 227.898L480.291 228.348L480.452 230.484L486.435 230.034ZM486.274 227.898L492.257 227.448C492.129 225.753 492.188 224.057 492.436 222.352L486.498 221.49L480.56 220.628C480.187 223.195 480.097 225.771 480.291 228.348L486.274 227.898ZM486.498 221.49L492.436 222.352L492.746 220.216L486.808 219.354L480.87 218.492L480.56 220.628L486.498 221.49ZM486.808 219.354L492.746 220.216L493.056 218.08L487.118 217.218L481.181 216.356L480.87 218.492L486.808 219.354ZM487.118 217.218L493.056 218.08C493.405 215.674 493.589 213.263 493.604 210.849L487.604 210.81L481.604 210.771C481.592 212.629 481.452 214.49 481.181 216.356L487.118 217.218ZM487.604 210.81L493.604 210.849L493.618 208.713L487.618 208.674L481.618 208.635L481.604 210.771L487.604 210.81ZM487.618 208.674L493.618 208.713L493.632 206.577L487.632 206.538L481.632 206.499L481.618 208.635L487.618 208.674ZM487.632 206.538L493.632 206.577C493.647 204.159 493.493 201.743 493.17 199.332L487.223 200.13L481.276 200.927C481.526 202.789 481.644 204.645 481.632 206.499L487.632 206.538ZM487.223 200.13L493.17 199.332L492.883 197.196L486.936 197.994L480.99 198.791L481.276 200.927L487.223 200.13ZM486.936 197.994L492.883 197.196L492.597 195.06L486.65 195.858L480.703 196.655L480.99 198.791L486.936 197.994ZM486.65 195.858L492.597 195.06C492.359 193.29 492.288 191.527 492.381 189.765L486.389 189.45L480.397 189.135C480.265 191.645 480.368 194.153 480.703 196.655L486.65 195.858ZM486.389 189.45L492.381 189.765L492.493 187.629L486.501 187.314L480.51 186.998L480.397 189.135L486.389 189.45ZM486.501 187.314L492.493 187.629L492.606 185.493L486.614 185.178L480.622 184.862L480.51 186.998L486.501 187.314ZM486.614 185.178L492.606 185.493C492.656 184.533 492.914 184.138 493.125 183.905L488.673 179.882L484.222 175.859C481.911 178.415 480.796 181.551 480.622 184.862L486.614 185.178ZM488.673 179.882L493.125 183.905L494.385 182.51L489.934 178.487L485.482 174.464L484.222 175.859L488.673 179.882ZM489.934 178.487L494.385 182.51L495.646 181.115L491.194 177.092L486.743 173.069L485.482 174.464L489.934 178.487ZM491.194 177.092L495.646 181.115C496.161 180.546 496.927 179.991 498.148 179.549L496.106 173.907L494.065 168.265C491.257 169.281 488.749 170.85 486.743 173.069L491.194 177.092ZM496.106 173.907L498.148 179.549L500.162 178.82L498.12 173.178L496.079 167.536L494.065 168.265L496.106 173.907ZM498.12 173.178L500.162 178.82L502.176 178.091L500.134 172.449L498.093 166.807L496.079 167.536L498.12 173.178ZM500.134 172.449L502.176 178.091C503.346 177.668 504.522 177.521 505.769 177.644L506.36 171.673L506.95 165.702C503.925 165.403 500.951 165.773 498.093 166.807L500.134 172.449ZM506.36 171.673L505.769 177.644L507.905 177.855L508.496 171.884L509.086 165.914L506.95 165.702L506.36 171.673ZM508.496 171.884L507.905 177.855L510.041 178.066L510.632 172.096L511.222 166.125L509.086 165.914L508.496 171.884ZM510.632 172.096L510.041 178.066C512.617 178.321 515.195 178.291 517.767 177.977L517.04 172.021L516.312 166.065C514.612 166.273 512.918 166.292 511.222 166.125L510.632 172.096ZM517.04 172.021L517.767 177.977L519.903 177.716L519.176 171.76L518.448 165.804L516.312 166.065L517.04 172.021ZM519.176 171.76L519.903 177.716L522.039 177.455L521.312 171.499L520.584 165.544L518.448 165.804L519.176 171.76ZM521.312 171.499L522.039 177.455C523.475 177.28 524.913 177.353 526.386 177.688L527.72 171.838L529.053 165.988C526.254 165.35 523.421 165.197 520.584 165.544L521.312 171.499ZM527.72 171.838L526.386 177.688L528.522 178.175L529.856 172.325L531.189 166.475L529.053 165.988L527.72 171.838ZM529.856 172.325L528.522 178.175L530.658 178.662L531.992 172.812L533.325 166.962L531.189 166.475L529.856 172.325ZM531.992 172.812L530.658 178.662C532.477 179.077 534.093 179.601 535.523 180.218L537.899 174.708L540.275 169.199C538.1 168.261 535.778 167.521 533.325 166.962L531.992 172.812ZM537.899 174.708L535.523 180.218L537.325 180.995L539.701 175.485L542.077 169.976L540.275 169.199L537.899 174.708ZM539.701 175.485L537.325 180.995L539.127 181.772L541.503 176.262L543.879 170.753L542.077 169.976L539.701 175.485ZM541.503 176.262L539.127 181.772C539.073 181.749 538.306 181.381 537.833 180.318C537.382 179.305 537.618 178.593 537.581 178.719L543.342 180.396L549.103 182.072C549.643 180.22 549.86 177.83 548.796 175.439C547.71 172.998 545.735 171.553 543.879 170.753L541.503 176.262ZM543.342 180.396L537.581 178.719L537.006 180.697L542.767 182.374L548.528 184.051L549.103 182.072L543.342 180.396ZM542.767 182.374L537.006 180.697L536.43 182.676L542.191 184.352L547.952 186.029L548.528 184.051L542.767 182.374ZM542.191 184.352L536.43 182.676C536.419 182.712 536.428 182.667 536.484 182.575C536.543 182.479 536.628 182.373 536.734 182.278C536.962 182.075 537.072 182.108 536.784 182.171L538.064 188.033L539.344 193.894C541.231 193.482 543.117 192.664 544.721 191.234C546.346 189.785 547.388 187.968 547.952 186.029L542.191 184.352ZM538.064 188.033L536.784 182.171L534.608 182.646L535.888 188.508L537.168 194.37L539.344 193.894L538.064 188.033ZM535.888 188.508L534.608 182.646L532.432 183.121L533.712 188.983L534.993 194.845L537.168 194.37L535.888 188.508ZM533.712 188.983L532.432 183.121C531.317 183.365 530.253 183.312 529.127 182.94L527.245 188.638L525.363 194.335C528.508 195.374 531.756 195.552 534.993 194.845L533.712 188.983ZM527.245 188.638L529.127 182.94L526.991 182.235L525.109 187.932L523.227 193.629L525.363 194.335L527.245 188.638ZM525.109 187.932L526.991 182.235L524.855 181.529L522.973 187.226L521.091 192.924L523.227 193.629L525.109 187.932ZM522.973 187.226L524.855 181.529C521.502 180.422 518.051 180.417 514.696 181.517L516.565 187.219L518.434 192.92C519.35 192.62 520.172 192.62 521.091 192.924L522.973 187.226ZM516.565 187.219L514.696 181.517L512.56 182.218L514.429 187.919L516.298 193.62L518.434 192.92L516.565 187.219ZM514.429 187.919L512.56 182.218L510.424 182.918L512.293 188.619L514.162 194.321L516.298 193.62L514.429 187.919ZM512.293 188.619L510.424 182.918C509.595 183.189 509.047 183.303 508.731 183.343C508.386 183.386 508.542 183.312 508.987 183.431L507.436 189.227L505.884 195.023C508.764 195.794 511.811 195.091 514.162 194.321L512.293 188.619ZM507.436 189.227L508.987 183.431L507.885 183.136L506.333 188.932L504.782 194.728L505.884 195.023L507.436 189.227ZM506.333 188.932L507.885 183.136L506.783 182.841L505.231 188.637L503.68 194.433L504.782 194.728L506.333 188.932ZM505.231 188.637L506.783 182.841C505.705 182.553 504.054 182.363 502.277 183.082C500.406 183.839 499.272 185.246 498.666 186.502C497.669 188.573 497.811 190.802 497.931 192.001L503.901 191.398L509.871 190.796C509.839 190.484 509.852 190.396 509.846 190.47C509.844 190.499 509.813 191.013 509.478 191.71C509.094 192.506 508.264 193.605 506.779 194.205C505.388 194.768 504.206 194.574 503.68 194.433L505.231 188.637ZM503.901 191.398L497.931 192.001L498.147 194.137L504.117 193.534L510.086 192.932L509.871 190.796L503.901 191.398ZM504.117 193.534L498.147 194.137L498.362 196.273L504.332 195.67L510.302 195.068L510.086 192.932L504.117 193.534ZM504.332 195.67L498.362 196.273C498.503 197.665 498.392 199.072 498.002 200.529L503.799 202.078L509.595 203.628C510.348 200.813 510.592 197.948 510.302 195.068L504.332 195.67ZM503.799 202.078L498.002 200.529L497.431 202.665L503.228 204.214L509.024 205.764L509.595 203.628L503.799 202.078ZM503.228 204.214L497.431 202.665L496.86 204.801L502.656 206.35L508.453 207.9L509.024 205.764L503.228 204.214ZM502.656 206.35L496.86 204.801C496.649 205.59 496.465 206.505 496.423 207.47C496.384 208.387 496.453 209.769 497.125 211.202C497.89 212.834 499.265 214.143 501.062 214.784C502.645 215.348 504.103 215.234 505.046 215.063L503.973 209.159L502.9 203.256C503.119 203.216 503.979 203.084 505.09 203.48C506.415 203.952 507.444 204.944 507.99 206.108C508.442 207.072 508.418 207.836 508.412 207.985C508.404 208.182 508.378 208.179 508.453 207.9L502.656 206.35ZM503.973 209.159L505.046 215.063L506.496 214.799L505.423 208.896L504.349 202.993L502.9 203.256L503.973 209.159ZM505.423 208.896L506.496 214.799L507.945 214.536L506.872 208.632L505.799 202.729L504.349 202.993L505.423 208.896ZM506.872 208.632L507.945 214.536C508.661 214.406 509.855 214.345 511.667 214.522L512.249 208.55L512.832 202.578C510.371 202.338 507.981 202.333 505.799 202.729L506.872 208.632ZM512.249 208.55L511.667 214.522L513.803 214.73L514.385 208.758L514.968 202.787L512.832 202.578L512.249 208.55ZM514.385 208.758L513.803 214.73L515.939 214.938L516.521 208.967L517.104 202.995L514.968 202.787L514.385 208.758ZM516.521 208.967L515.939 214.938C518.188 215.158 520.438 215.313 522.689 215.403L522.929 209.408L523.17 203.413C521.149 203.332 519.127 203.192 517.104 202.995L516.521 208.967ZM522.929 209.408L522.689 215.403L524.825 215.489L525.065 209.494L525.306 203.498L523.17 203.413L522.929 209.408ZM525.065 209.494L524.825 215.489L526.961 215.575L527.201 209.579L527.442 203.584L525.306 203.498L525.065 209.494ZM527.201 209.579L526.961 215.575C528.05 215.618 529.015 215.915 529.956 216.503L533.136 211.415L536.317 206.328C533.616 204.639 530.625 203.712 527.442 203.584L527.201 209.579ZM533.136 211.415L529.956 216.503L531.776 217.641L534.957 212.554L538.138 207.466L536.317 206.328L533.136 211.415ZM534.957 212.554L531.776 217.641L533.597 218.78L536.778 213.692L539.958 208.604L538.138 207.466L534.957 212.554ZM536.778 213.692L533.597 218.78C533.928 218.987 532.95 218.51 532.569 216.989C532.128 215.224 532.952 214.057 533.029 213.957L537.765 217.641L542.501 221.325C543.741 219.731 544.981 217.158 544.211 214.077C543.501 211.239 541.448 209.536 539.958 208.604L536.778 213.692ZM537.765 217.641L533.029 213.957L531.867 215.451L536.603 219.135L541.339 222.819L542.501 221.325L537.765 217.641ZM536.603 219.135L531.867 215.451L530.705 216.945L535.441 220.629L540.177 224.313L541.339 222.819L536.603 219.135ZM535.441 220.629L530.705 216.945C530.462 217.258 530.127 217.535 529.358 217.712L530.704 223.559L532.049 229.406C535.272 228.665 538.095 226.989 540.177 224.313L535.441 220.629ZM530.704 223.559L529.358 217.712L527.363 218.171L528.708 224.018L530.054 229.866L532.049 229.406L530.704 223.559ZM528.708 224.018L527.363 218.171L525.367 218.63L526.713 224.478L528.058 230.325L530.054 229.866L528.708 224.018ZM526.713 224.478L525.367 218.63C523.802 218.991 522.159 219.188 520.429 219.213L520.515 225.212L520.601 231.212C523.143 231.175 525.632 230.883 528.058 230.325L526.713 224.478ZM520.515 225.212L520.429 219.213L518.293 219.243L518.379 225.243L518.465 231.242L520.601 231.212L520.515 225.212ZM518.379 225.243L518.293 219.243L516.157 219.274L516.243 225.273L516.329 231.273L518.465 231.242L518.379 225.243ZM516.243 225.273L516.157 219.274C514.477 219.298 512.786 219.133 511.076 218.771L509.835 224.641L508.594 230.512C511.156 231.053 513.737 231.31 516.329 231.273L516.243 225.273ZM509.835 224.641L511.076 218.771L508.94 218.319L507.699 224.19L506.458 230.06L508.594 230.512L509.835 224.641ZM507.699 224.19L508.94 218.319L506.804 217.868L505.563 223.738L504.322 229.608L506.458 230.06L507.699 224.19ZM505.563 223.738L506.804 217.868C505.48 217.588 502.074 217.042 499.334 219.486C496.307 222.186 496.855 225.905 497.182 227.335L503.031 225.996L508.88 224.657C508.863 224.585 508.97 224.968 508.874 225.621C508.765 226.371 508.372 227.504 507.322 228.441C506.324 229.331 505.288 229.546 504.806 229.595C504.351 229.641 504.142 229.57 504.322 229.608L505.563 223.738ZM503.031 225.996L497.182 227.335L497.631 229.293L503.479 227.954L509.328 226.615L508.88 224.657L503.031 225.996ZM503.479 227.954L497.631 229.293L498.079 231.25L503.927 229.911L509.776 228.572L509.328 226.615L503.479 227.954ZM503.927 229.911L498.079 231.25C498.376 232.548 498.473 233.956 498.331 235.504L504.306 236.051L510.281 236.598C510.531 233.874 510.375 231.188 509.776 228.572L503.927 229.911ZM504.306 236.051L498.331 235.504L498.136 237.64L504.111 238.187L510.086 238.734L510.281 236.598L504.306 236.051ZM504.111 238.187L498.136 237.64L497.94 239.776L503.915 240.323L509.89 240.87L510.086 238.734L504.111 238.187ZM503.915 240.323L497.94 239.776C497.747 241.882 497.539 243.989 497.314 246.095L503.28 246.731L509.247 247.367C509.477 245.201 509.692 243.036 509.89 240.87L503.915 240.323ZM503.28 246.731L497.314 246.095L497.086 248.231L503.053 248.867L509.019 249.503L509.247 247.367L503.28 246.731ZM503.053 248.867L497.086 248.231L496.859 250.367L502.825 251.003L508.791 251.639L509.019 249.503L503.053 248.867ZM502.825 251.003L496.859 250.367C496.702 251.834 496.331 253.034 495.81 254.037L501.134 256.804L506.457 259.571C507.736 257.112 508.492 254.444 508.791 251.639L502.825 251.003ZM501.134 256.804L495.81 254.037L494.91 255.768L500.234 258.535L505.558 261.302L506.457 259.571L501.134 256.804ZM500.234 258.535L494.91 255.768L494.01 257.499L499.334 260.266L504.658 263.033L505.558 261.302L500.234 258.535ZM499.334 260.266L494.01 257.499C493.628 258.235 493.458 258.44 493.513 258.374C493.535 258.347 493.803 258.015 494.332 257.662C494.843 257.322 496.128 256.617 497.927 256.819L497.258 262.781L496.59 268.744C498.63 268.973 500.184 268.184 500.989 267.647C501.812 267.098 502.399 266.459 502.768 266.012C503.514 265.108 504.141 264.028 504.658 263.033L499.334 260.266ZM497.258 262.781L497.927 256.819L497.443 256.764L496.774 262.727L496.105 268.69L496.59 268.744L497.258 262.781ZM496.774 262.727L497.443 256.764L496.959 256.71L496.29 262.673L495.621 268.635L496.105 268.69L496.774 262.727ZM496.29 262.673L496.959 256.71C497.351 256.754 497.641 256.832 497.785 256.874C497.941 256.921 498.044 256.962 498.079 256.976C498.143 257.002 498.106 256.991 497.938 256.901C497.604 256.721 497.059 256.394 496.258 255.868L492.964 260.883L489.669 265.898C490.602 266.511 491.478 267.051 492.253 267.468C492.736 267.728 494.081 268.462 495.621 268.635L496.29 262.673ZM492.964 260.883L496.258 255.868L494.524 254.729L491.23 259.744L487.936 264.759L489.669 265.898L492.964 260.883Z" fill="#BD2DED"/>
</g>
<defs>
<clipPath id="clip0_11_11">
<rect width="999" height="307" fill="white"/>
</clipPath>
</defs>
</svg>
