<svg width="1328" height="500" viewBox="0 0 1328 500" fill="none" xmlns="http://www.w3.org/2000/svg">
<circle cx="227" cy="250" r="201" fill="#EDA12D"/>
<ellipse cx="179" cy="336" rx="30" ry="48" fill="#131313"/>
<ellipse cx="270" cy="336" rx="30" ry="48" fill="#131313"/>
<path d="M1269.13 203.107C1278.26 203.107 1285.17 205.074 1289.87 209.006C1294.69 212.939 1297.99 218.204 1299.76 224.801C1301.54 231.271 1302.43 238.502 1302.43 246.494V295.209C1302.43 298.508 1301.35 301.299 1299.19 303.582C1297.03 305.739 1294.31 306.817 1291.01 306.817C1287.71 306.817 1284.98 305.739 1282.83 303.582C1280.67 301.299 1279.59 298.508 1279.59 295.209V246.494C1279.59 242.308 1279.08 238.565 1278.07 235.267C1277.05 231.841 1275.21 229.114 1272.55 227.084C1269.89 225.054 1266.08 224.039 1261.13 224.039C1256.31 224.039 1252.19 225.054 1248.76 227.084C1245.34 229.114 1242.74 231.841 1240.96 235.267C1239.31 238.565 1238.49 242.308 1238.49 246.494V295.209C1238.49 298.508 1237.41 301.299 1235.25 303.582C1233.1 305.739 1230.37 306.817 1227.07 306.817C1223.77 306.817 1221.04 305.739 1218.89 303.582C1216.73 301.299 1215.65 298.508 1215.65 295.209V177.608C1215.65 174.309 1216.73 171.582 1218.89 169.425C1221.04 167.142 1223.77 166 1227.07 166C1230.37 166 1233.1 167.142 1235.25 169.425C1237.41 171.582 1238.49 174.309 1238.49 177.608V224.801L1235.63 224.23C1236.78 222.073 1238.36 219.79 1240.39 217.379C1242.42 214.842 1244.89 212.495 1247.81 210.338C1250.73 208.182 1253.96 206.469 1257.52 205.2C1261.07 203.805 1264.94 203.107 1269.13 203.107Z" fill="#EDA12D"/>
<path d="M1151.36 308.72C1140.58 308.72 1131.19 306.5 1123.2 302.06C1115.33 297.493 1109.24 291.34 1104.93 283.601C1100.75 275.863 1098.65 267.109 1098.65 257.341C1098.65 245.923 1100.94 236.218 1105.5 228.226C1110.2 220.107 1116.29 213.89 1123.77 209.577C1131.26 205.264 1139.18 203.107 1147.56 203.107C1154.03 203.107 1160.12 204.439 1165.83 207.103C1171.66 209.767 1176.8 213.446 1181.24 218.14C1185.68 222.707 1189.17 228.036 1191.71 234.125C1194.37 240.214 1195.7 246.684 1195.7 253.535C1195.57 256.58 1194.37 259.053 1192.09 260.956C1189.8 262.859 1187.14 263.811 1184.09 263.811H1111.4L1105.69 244.781H1175.53L1171.34 248.587V243.449C1171.09 239.77 1169.76 236.472 1167.35 233.554C1165.06 230.636 1162.15 228.353 1158.59 226.704C1155.17 224.927 1151.49 224.039 1147.56 224.039C1143.75 224.039 1140.2 224.547 1136.9 225.562C1133.6 226.577 1130.75 228.289 1128.34 230.7C1125.93 233.11 1124.02 236.345 1122.63 240.405C1121.23 244.464 1120.54 249.602 1120.54 255.818C1120.54 262.669 1121.93 268.505 1124.72 273.325C1127.64 278.019 1131.32 281.635 1135.76 284.172C1140.33 286.583 1145.15 287.788 1150.22 287.788C1154.92 287.788 1158.66 287.407 1161.45 286.646C1164.24 285.885 1166.46 284.997 1168.11 283.982C1169.89 282.84 1171.47 281.889 1172.87 281.127C1175.15 279.986 1177.31 279.415 1179.34 279.415C1182.13 279.415 1184.41 280.366 1186.19 282.269C1188.09 284.172 1189.04 286.392 1189.04 288.93C1189.04 292.355 1187.27 295.463 1183.71 298.254C1180.41 301.045 1175.78 303.519 1169.82 305.675C1163.86 307.705 1157.71 308.72 1151.36 308.72Z" fill="#EDA12D"/>
<path d="M1005.71 291.023C1004.44 289.247 1003.87 286.963 1004 284.172C1004.12 281.381 1005.77 278.971 1008.94 276.941C1010.97 275.672 1013.13 275.165 1015.41 275.419C1017.7 275.546 1019.92 276.687 1022.07 278.844C1025.75 282.523 1029.62 285.377 1033.68 287.407C1037.74 289.437 1042.82 290.452 1048.9 290.452C1050.81 290.325 1052.9 290.071 1055.18 289.691C1057.47 289.183 1059.43 288.168 1061.08 286.646C1062.86 284.997 1063.75 282.523 1063.75 279.225C1063.75 276.434 1062.8 274.213 1060.89 272.564C1058.99 270.915 1056.45 269.52 1053.28 268.378C1050.24 267.236 1046.81 266.158 1043.01 265.143C1039.07 264.001 1035.01 262.732 1030.83 261.337C1026.77 259.941 1023.02 258.165 1019.6 256.009C1016.17 253.725 1013.38 250.744 1011.23 247.065C1009.07 243.386 1007.99 238.755 1007.99 233.174C1007.99 226.83 1009.77 221.439 1013.32 216.999C1016.87 212.558 1021.44 209.133 1027.02 206.723C1032.73 204.312 1038.69 203.107 1044.91 203.107C1048.84 203.107 1052.96 203.615 1057.28 204.63C1061.59 205.518 1065.71 207.04 1069.65 209.197C1073.58 211.226 1076.88 213.954 1079.54 217.379C1080.94 219.282 1081.76 221.566 1082.02 224.23C1082.27 226.894 1081.06 229.304 1078.4 231.461C1076.5 232.983 1074.28 233.681 1071.74 233.554C1069.2 233.3 1067.11 232.412 1065.46 230.89C1063.3 228.099 1060.39 225.879 1056.71 224.23C1053.15 222.581 1049.03 221.756 1044.34 221.756C1042.43 221.756 1040.34 222.01 1038.06 222.517C1035.9 222.898 1034 223.849 1032.35 225.372C1030.7 226.767 1029.88 229.051 1029.88 232.222C1029.88 235.14 1030.83 237.487 1032.73 239.263C1034.63 240.912 1037.17 242.308 1040.34 243.449C1043.64 244.464 1047.13 245.479 1050.81 246.494C1054.61 247.509 1058.48 248.714 1062.42 250.11C1066.35 251.505 1069.96 253.345 1073.26 255.628C1076.56 257.912 1079.22 260.893 1081.25 264.572C1083.28 268.124 1084.3 272.691 1084.3 278.273C1084.3 284.743 1082.4 290.262 1078.59 294.829C1074.78 299.396 1070.03 302.884 1064.32 305.295C1058.61 307.578 1052.77 308.72 1046.81 308.72C1039.33 308.72 1031.84 307.451 1024.36 304.914C1016.87 302.25 1010.66 297.62 1005.71 291.023Z" fill="#EDA12D"/>
<path d="M947.318 308.72C936.535 308.72 927.147 306.5 919.155 302.06C911.289 297.493 905.2 291.34 900.886 283.601C896.7 275.863 894.607 267.109 894.607 257.341C894.607 245.923 896.89 236.218 901.457 228.226C906.151 220.107 912.241 213.89 919.725 209.577C927.21 205.264 935.139 203.107 943.512 203.107C949.982 203.107 956.071 204.439 961.78 207.103C967.616 209.767 972.754 213.446 977.194 218.14C981.634 222.707 985.123 228.036 987.66 234.125C990.324 240.214 991.656 246.684 991.656 253.535C991.529 256.58 990.324 259.053 988.041 260.956C985.757 262.859 983.093 263.811 980.048 263.811H907.356L901.648 244.781H971.485L967.299 248.587V243.449C967.045 239.77 965.713 236.472 963.303 233.554C961.019 230.636 958.101 228.353 954.549 226.704C951.124 224.927 947.445 224.039 943.512 224.039C939.706 224.039 936.154 224.547 932.856 225.562C929.557 226.577 926.703 228.289 924.292 230.7C921.882 233.11 919.979 236.345 918.584 240.405C917.188 244.464 916.49 249.602 916.49 255.818C916.49 262.669 917.886 268.505 920.677 273.325C923.595 278.019 927.274 281.635 931.714 284.172C936.281 286.583 941.102 287.788 946.176 287.788C950.87 287.788 954.613 287.407 957.403 286.646C960.194 285.885 962.415 284.997 964.064 283.982C965.84 282.84 967.426 281.889 968.821 281.127C971.105 279.986 973.261 279.415 975.291 279.415C978.082 279.415 980.366 280.366 982.142 282.269C984.045 284.172 984.996 286.392 984.996 288.93C984.996 292.355 983.22 295.463 979.668 298.254C976.369 301.045 971.739 303.519 965.776 305.675C959.814 307.705 953.661 308.72 947.318 308.72Z" fill="#EDA12D"/>
<path d="M835.075 308.72C824.291 308.72 814.904 306.5 806.911 302.06C799.046 297.493 792.956 291.34 788.643 283.601C784.457 275.863 782.363 267.109 782.363 257.341C782.363 245.923 784.647 236.218 789.214 228.226C793.908 220.107 799.997 213.89 807.482 209.577C814.967 205.264 822.896 203.107 831.269 203.107C837.739 203.107 843.828 204.439 849.537 207.103C855.373 209.767 860.511 213.446 864.951 218.14C869.391 222.707 872.88 228.036 875.417 234.125C878.081 240.214 879.413 246.684 879.413 253.535C879.286 256.58 878.081 259.053 875.797 260.956C873.514 262.859 870.85 263.811 867.805 263.811H795.113L789.404 244.781H859.242L855.055 248.587V243.449C854.802 239.77 853.47 236.472 851.059 233.554C848.776 230.636 845.858 228.353 842.306 226.704C838.881 224.927 835.202 224.039 831.269 224.039C827.463 224.039 823.911 224.547 820.612 225.562C817.314 226.577 814.46 228.289 812.049 230.7C809.639 233.11 807.736 236.345 806.34 240.405C804.945 244.464 804.247 249.602 804.247 255.818C804.247 262.669 805.643 268.505 808.434 273.325C811.351 278.019 815.03 281.635 819.471 284.172C824.038 286.583 828.858 287.788 833.933 287.788C838.627 287.788 842.369 287.407 845.16 286.646C847.951 285.885 850.171 284.997 851.82 283.982C853.597 282.84 855.182 281.889 856.578 281.127C858.861 279.986 861.018 279.415 863.048 279.415C865.839 279.415 868.122 280.366 869.898 282.269C871.801 284.172 872.753 286.392 872.753 288.93C872.753 292.355 870.977 295.463 867.425 298.254C864.126 301.045 859.496 303.519 853.533 305.675C847.571 307.705 841.418 308.72 835.075 308.72Z" fill="#EDA12D"/>
<path d="M729.093 203.107C738.227 203.107 745.141 205.074 749.835 209.006C754.656 212.939 757.954 218.204 759.73 224.801C761.506 231.271 762.395 238.502 762.395 246.494V295.209C762.395 298.508 761.316 301.299 759.159 303.582C757.003 305.739 754.275 306.817 750.977 306.817C747.678 306.817 744.951 305.739 742.794 303.582C740.638 301.299 739.559 298.508 739.559 295.209V246.494C739.559 242.308 739.052 238.565 738.037 235.267C737.022 231.841 735.183 229.114 732.518 227.084C729.854 225.054 726.048 224.039 721.101 224.039C716.28 224.039 712.157 225.054 708.732 227.084C705.306 229.114 702.706 231.841 700.93 235.267C699.281 238.565 698.456 242.308 698.456 246.494V295.209C698.456 298.508 697.378 301.299 695.221 303.582C693.064 305.739 690.337 306.817 687.038 306.817C683.74 306.817 681.012 305.739 678.856 303.582C676.699 301.299 675.621 298.508 675.621 295.209V177.608C675.621 174.309 676.699 171.582 678.856 169.425C681.012 167.142 683.74 166 687.038 166C690.337 166 693.064 167.142 695.221 169.425C697.378 171.582 698.456 174.309 698.456 177.608V224.801L695.602 224.23C696.743 222.073 698.329 219.79 700.359 217.379C702.389 214.842 704.862 212.495 707.78 210.338C710.698 208.182 713.933 206.469 717.485 205.2C721.037 203.805 724.907 203.107 729.093 203.107Z" fill="#EDA12D"/>
<path d="M622.047 203.107C629.278 203.107 635.558 203.868 640.886 205.391C646.341 206.913 650.528 209.07 653.446 211.861C656.49 214.525 658.013 217.76 658.013 221.566C658.013 224.103 657.251 226.513 655.729 228.797C654.207 230.953 651.987 232.032 649.069 232.032C647.039 232.032 645.326 231.778 643.931 231.271C642.662 230.636 641.521 229.875 640.506 228.987C639.491 228.099 638.286 227.274 636.89 226.513C635.621 225.752 633.655 225.181 630.991 224.801C628.454 224.293 626.551 224.039 625.282 224.039C618.812 224.039 613.294 225.435 608.727 228.226C604.286 231.017 600.861 234.823 598.451 239.644C596.04 244.337 594.835 249.792 594.835 256.009C594.835 262.098 596.04 267.553 598.451 272.374C600.988 277.068 604.413 280.81 608.727 283.601C613.167 286.392 618.241 287.788 623.95 287.788C627.122 287.788 629.849 287.597 632.133 287.217C634.416 286.836 636.319 286.265 637.842 285.504C639.618 284.489 641.203 283.411 642.599 282.269C643.994 281.127 646.088 280.557 648.879 280.557C652.177 280.557 654.714 281.635 656.49 283.792C658.266 285.821 659.154 288.359 659.154 291.403C659.154 294.575 657.378 297.493 653.826 300.157C650.274 302.694 645.58 304.787 639.744 306.436C634.036 307.959 627.819 308.72 621.096 308.72C611.074 308.72 602.384 306.436 595.025 301.869C587.667 297.176 581.959 290.832 577.899 282.84C573.966 274.848 572 265.904 572 256.009C572 245.606 574.093 236.472 578.28 228.607C582.593 220.614 588.492 214.398 595.977 209.958C603.589 205.391 612.279 203.107 622.047 203.107Z" fill="#EDA12D"/>
</svg>
